<?xml version="1.0" encoding="utf-8"?>
<!-- Generator: Adobe Illustrator 16.0.0, SVG Export Plug-In . SVG Version: 6.00 Build 0)  -->
<!DOCTYPE svg PUBLIC "-//W3C//DTD SVG 1.1//EN" "http://www.w3.org/Graphics/SVG/1.1/DTD/svg11.dtd">
<svg version="1.1" id="Layer_1" xmlns="http://www.w3.org/2000/svg" xmlns:xlink="http://www.w3.org/1999/xlink" x="0px" y="0px"
	 width="612px" height="792px" viewBox="0 0 612 792" enable-background="new 0 0 612 792" xml:space="preserve">
<g>
	
		<linearGradient id="SVGID_1_" gradientUnits="userSpaceOnUse" x1="275.5674" y1="710.0469" x2="275.5674" y2="164.8969" gradientTransform="matrix(1.1106 0 0 1.1106 -0.0553 -174.3878)">
		<stop  offset="0" style="stop-color:#E09B3D"/>
		<stop  offset="0.3" style="stop-color:#C74C4D"/>
		<stop  offset="0.6" style="stop-color:#C21975"/>
		<stop  offset="1" style="stop-color:#7024C4"/>
	</linearGradient>
	<path fill="url(#SVGID_1_)" d="M429.682,4H182.318C81.788,4,0,85.788,0,186.318v247.363C0,534.213,81.788,616,182.318,616h247.364
		C530.213,616,612,534.213,612,433.682V186.318C611.999,85.788,530.211,4,429.682,4z M550.433,433.682
		c0,66.688-54.063,120.751-120.751,120.751H182.318c-66.688,0-120.75-54.063-120.75-120.751V186.318
		c0-66.689,54.063-120.751,120.75-120.751h247.364c66.688,0,120.751,54.062,120.751,120.751V433.682L550.433,433.682z"/>
	
		<linearGradient id="SVGID_2_" gradientUnits="userSpaceOnUse" x1="275.5674" y1="715.4502" x2="275.5674" y2="170.2983" gradientTransform="matrix(1.1106 0 0 1.1106 -0.0553 -174.3878)">
		<stop  offset="0" style="stop-color:#E09B3D"/>
		<stop  offset="0.3" style="stop-color:#C74C4D"/>
		<stop  offset="0.6" style="stop-color:#C21975"/>
		<stop  offset="1" style="stop-color:#7024C4"/>
	</linearGradient>
	<path fill="url(#SVGID_2_)" d="M306,157.715c-87.278,0-158.285,71.007-158.285,158.284c0,87.278,71.007,158.286,158.285,158.286
		S464.285,403.277,464.285,316C464.285,228.721,393.278,157.715,306,157.715z M306,412.719c-53.416,0-96.718-43.303-96.718-96.718
		c0-53.416,43.303-96.718,96.718-96.718c53.416,0,96.718,43.302,96.718,96.718C402.718,369.416,359.415,412.719,306,412.719z"/>
	
		<linearGradient id="SVGID_3_" gradientUnits="userSpaceOnUse" x1="418.084" y1="709.877" x2="418.084" y2="164.727" gradientTransform="matrix(1.1106 0 0 1.1106 -0.0553 -174.3878)">
		<stop  offset="0" style="stop-color:#E09B3D"/>
		<stop  offset="0.3" style="stop-color:#C74C4D"/>
		<stop  offset="0.6" style="stop-color:#C21975"/>
		<stop  offset="1" style="stop-color:#7024C4"/>
	</linearGradient>
	<circle fill="url(#SVGID_3_)" cx="464.285" cy="152.715" r="37.928"/>
</g>
<text transform="matrix(1 0 0 1 21 726)" font-family="'Billabong'" font-size="165">biplovegram</text>
<g>
	
		<text transform="matrix(1 0 0 1 21 726)" fill="none" stroke="#FFFFFF" stroke-miterlimit="10" font-family="'Billabong'" font-size="165">biplovegram</text>
	<g>
		<linearGradient id="SVGID_4_" gradientUnits="userSpaceOnUse" x1="312.5488" y1="795.6299" x2="312.5488" y2="614.2949">
			<stop  offset="0" style="stop-color:#E09B3D"/>
			<stop  offset="0.3" style="stop-color:#C74C4D"/>
			<stop  offset="0.6" style="stop-color:#C21975"/>
			<stop  offset="1" style="stop-color:#7024C4"/>
		</linearGradient>
		<path fill="url(#SVGID_4_)" d="M71.49,699.93c0,2.971-0.248,6.134-0.743,9.488c-0.495,3.356-1.485,6.435-2.97,9.239
			c-1.485,2.806-3.576,5.144-6.27,7.013c-2.697,1.869-6.244,2.805-10.642,2.805c-3.96,0-6.848-0.304-8.663-0.907
			c-1.815-0.605-3.329-1.294-4.538-2.063c-1.101,0.549-1.98,0.99-2.64,1.32c-0.66,0.33-1.294,0.632-1.897,0.907
			c-0.606,0.273-1.072,0.412-1.402,0.412c-0.771,0-1.459-0.275-2.063-0.824c-0.606-0.552-1.073-1.676-1.403-3.383
			c-0.33-1.704-0.577-4.068-0.742-7.095c-0.165-3.024-0.248-7.013-0.248-11.963c0-7.92,0.108-18.81,0.33-32.67
			c0.219-13.86,0.438-31.734,0.66-53.625c0-1.099-0.111-1.758-0.33-1.979c-0.222-0.22-0.33-0.438-0.33-0.66
			c0-0.66,0.631-1.099,1.897-1.32c1.263-0.219,2.063-0.33,2.393-0.33s1.209,0.111,2.64,0.33c1.429,0.222,2.888,0.552,4.373,0.99
			c1.485,0.44,2.831,1.019,4.042,1.732c1.209,0.717,1.815,1.567,1.815,2.558c-0.44,1.319-0.825,2.449-1.155,3.382
			c-0.33,0.937-0.634,1.815-0.908,2.641c-0.275,0.825-0.412,1.402-0.412,1.732c-0.552,4.182-0.964,7.783-1.238,10.808
			c-0.276,3.026-0.495,6.216-0.66,9.569c-0.165,3.357-0.33,7.234-0.495,11.633c-0.165,4.401-0.413,10.122-0.743,17.16
			c0.549-1.099,1.073-2.501,1.567-4.208c0.495-1.704,1.127-3.382,1.898-5.032c0.768-1.649,1.732-3.078,2.887-4.29
			c1.155-1.209,2.723-1.814,4.703-1.814c0.879,0,2.117,0.33,3.712,0.989c1.593,0.66,2.831,1.102,3.712,1.32
			c3.079,0.66,5.528,2.393,7.343,5.197c1.815,2.806,3.217,6.051,4.208,9.735c0.99,3.687,1.622,7.453,1.897,11.303
			C71.351,693.882,71.49,697.182,71.49,699.93z M59.445,695.97c0-0.33-0.028-1.209-0.083-2.64c-0.057-1.429-0.165-3.078-0.33-4.95
			c-0.165-1.869-0.413-3.877-0.743-6.022c-0.33-2.145-0.799-4.097-1.402-5.857c-0.606-1.758-1.349-3.218-2.228-4.372
			c-0.882-1.155-1.98-1.733-3.3-1.733c-1.761,0-3.411,1.542-4.95,4.62c-1.542,3.081-2.888,6.794-4.042,11.138
			c-1.155,4.347-2.063,8.828-2.723,13.447c-0.66,4.62-0.99,8.415-0.99,11.386c0,1.211,0.026,2.503,0.083,3.877
			c0.054,1.377,0.191,2.669,0.413,3.878c1.32,0.552,2.31,1.019,2.97,1.402c0.66,0.387,1.209,0.717,1.65,0.99
			c0.438,0.275,0.908,0.469,1.402,0.577c0.495,0.111,1.127,0.165,1.897,0.165c2.859,0,5.115-1.127,6.765-3.383
			c1.65-2.253,2.888-4.839,3.712-7.755c0.825-2.913,1.346-5.801,1.568-8.662C59.334,699.216,59.445,697.182,59.445,695.97z"/>
		<linearGradient id="SVGID_5_" gradientUnits="userSpaceOnUse" x1="312.5488" y1="795.6299" x2="312.5488" y2="614.2949">
			<stop  offset="0" style="stop-color:#E09B3D"/>
			<stop  offset="0.3" style="stop-color:#C74C4D"/>
			<stop  offset="0.6" style="stop-color:#C21975"/>
			<stop  offset="1" style="stop-color:#7024C4"/>
		</linearGradient>
		<path fill="url(#SVGID_5_)" d="M100.033,649.605c0,0.771-0.387,1.402-1.155,1.897c-0.771,0.494-1.625,0.853-2.558,1.072
			c-0.936,0.222-1.843,0.387-2.723,0.495c-0.881,0.11-1.431,0.165-1.65,0.165c-2.31,0-4.594-0.66-6.848-1.98
			c-2.256-1.32-4.318-3.408-6.188-6.27c-0.222-0.33-0.551-0.769-0.99-1.32c-0.441-0.549-0.66-0.934-0.66-1.155
			c0-0.549,0.413-1.044,1.238-1.484c0.825-0.438,1.758-0.88,2.805-1.32c1.044-0.438,2.034-0.769,2.97-0.99
			c0.933-0.219,1.567-0.33,1.897-0.33c2.199,0,4.373,0.552,6.518,1.65c2.145,1.101,3.877,3.135,5.197,6.104
			c0.219,0.33,0.632,0.908,1.238,1.732C99.729,648.697,100.033,649.275,100.033,649.605z M116.863,699.6
			c-0.33,2.641-0.936,5.392-1.815,8.25c-0.882,2.862-2.119,5.528-3.712,8.003c-1.596,2.475-3.604,4.512-6.022,6.104
			c-2.421,1.597-5.391,2.393-8.91,2.393c-2.751,0-5.556-0.933-8.415-2.805c-2.862-1.979-4.813-4.563-5.857-7.755
			c-1.047-3.189-1.567-6.271-1.567-9.24c0-0.879,0.054-2.199,0.165-3.96c0.108-1.758,0.165-3.903,0.165-6.435v-18.15
			c0-0.879-0.029-1.814-0.083-2.805c-0.057-0.99-0.193-1.924-0.413-2.806c-0.111-0.438-0.304-0.933-0.578-1.484
			c-0.276-0.549-0.413-0.934-0.413-1.155c0-0.438,0.273-0.797,0.825-1.072c0.549-0.273,1.155-0.467,1.815-0.577
			c0.66-0.108,1.593-0.165,2.805-0.165c0.33,0,1.098,0.028,2.31,0.082c1.209,0.057,2.475,0.247,3.795,0.577
			c1.32,0.33,2.5,0.854,3.547,1.568c1.044,0.716,1.567,1.732,1.567,3.052c0.108,0.33-0.083,0.937-0.578,1.815
			c-0.495,0.882-0.964,2.421-1.402,4.62c-0.111,0.882-0.222,1.678-0.33,2.393c-0.111,0.717-0.222,1.513-0.33,2.393
			c-0.111,0.881-0.222,1.954-0.33,3.217c-0.111,1.267-0.222,2.888-0.33,4.868v9.899c0,1.761,0.054,3.548,0.165,5.362
			c0.108,1.815,0.355,3.466,0.742,4.95c0.384,1.485,1.016,2.697,1.897,3.63c0.879,0.937,2.034,1.402,3.465,1.402
			c2.088,0,3.738-0.603,4.95-1.814c1.209-1.209,2.145-2.253,2.805-3.135c1.209-1.65,2.145-3.713,2.805-6.188
			c0.66-2.476,1.263-5.033,1.815-7.673l0.33-1.65c0.33-1.649,1.32-2.475,2.97-2.475s2.475,1.155,2.475,3.465v0.825L116.863,699.6z"
			/>
		<linearGradient id="SVGID_6_" gradientUnits="userSpaceOnUse" x1="312.5488" y1="795.6299" x2="312.5488" y2="614.2949">
			<stop  offset="0" style="stop-color:#E09B3D"/>
			<stop  offset="0.3" style="stop-color:#C74C4D"/>
			<stop  offset="0.6" style="stop-color:#C21975"/>
			<stop  offset="1" style="stop-color:#7024C4"/>
		</linearGradient>
		<path fill="url(#SVGID_6_)" d="M158.606,694.32c0,4.62-0.407,8.992-1.222,13.117c-0.815,4.125-2.034,7.701-3.664,10.725
			c-1.629,3.027-3.696,5.445-6.203,7.261c-2.508,1.814-5.411,2.722-8.711,2.722c-2.97,0-5.502-0.577-7.59-1.732
			c-2.091-1.154-3.135-3.16-3.135-6.022c0-1.209,0.413-2.145,1.237-2.805c0.825-0.66,1.568-0.99,2.228-0.99
			c0.879,0,1.511,0.248,1.897,0.743c0.384,0.494,0.769,1.046,1.155,1.649c0.384,0.606,0.825,1.155,1.32,1.65
			s1.292,0.742,2.393,0.742c1.869,0,3.326-0.879,4.373-2.64c1.044-1.759,1.841-3.96,2.393-6.601c0.549-2.64,0.907-5.499,1.072-8.58
			c0.165-3.078,0.248-5.939,0.248-8.579v-7.591c0-1.539-0.057-3.382-0.165-5.527c-0.111-2.145-0.387-4.179-0.825-6.104
			c-0.441-1.924-1.129-3.573-2.063-4.95c-0.936-1.374-2.173-2.063-3.713-2.063c-2.31,0-4.318,1.679-6.022,5.032
			c-1.707,3.356-3.109,7.59-4.208,12.705c-1.101,5.115-1.897,10.782-2.393,16.995c-0.495,6.216-0.742,12.185-0.742,17.902v14.686
			c0.108,2.198,0.219,4.125,0.33,5.774c0.108,1.65,0.248,3.189,0.412,4.62c0.165,1.429,0.384,2.831,0.66,4.208
			c0.273,1.374,0.632,2.941,1.073,4.702c0.108,0.33,0.521,0.632,1.237,0.907c0.714,0.273,1.073,0.797,1.073,1.567
			c0,0.88-0.305,1.567-0.908,2.063c-0.606,0.495-1.377,0.88-2.31,1.155c-0.936,0.273-1.954,0.438-3.052,0.495
			c-1.101,0.054-2.091,0.082-2.97,0.082h-2.31c-1.32,0-2.64-0.193-3.96-0.577c-1.32-0.387-1.98-1.402-1.98-3.053V661.32
			c0-2.199-0.222-3.96-0.66-5.28c-0.111-0.438-0.222-0.851-0.33-1.237c-0.111-0.385-0.222-0.743-0.33-1.072
			c0-0.22,0.301-0.495,0.907-0.825c0.604-0.33,1.292-0.66,2.063-0.99c0.769-0.33,1.511-0.604,2.228-0.825
			c0.714-0.219,1.126-0.33,1.238-0.33c1.869,0,3.326,0.606,4.372,1.815c1.044,1.212,1.568,3.575,1.568,7.095v22.936
			c0.655-1.54,1.284-3.574,1.887-6.105c0.603-2.529,1.477-5.032,2.627-7.508c1.15-2.475,2.655-4.62,4.517-6.435
			c1.862-1.815,4.27-2.723,7.224-2.723c3.501,0,6.375,1.184,8.622,3.548c2.242,2.366,4.05,5.226,5.419,8.58
			c1.366,3.356,2.325,6.93,2.872,10.725s0.822,7.178,0.822,10.147V694.32z"/>
		<linearGradient id="SVGID_7_" gradientUnits="userSpaceOnUse" x1="312.5488" y1="795.6299" x2="312.5488" y2="614.2949">
			<stop  offset="0" style="stop-color:#E09B3D"/>
			<stop  offset="0.3" style="stop-color:#C74C4D"/>
			<stop  offset="0.6" style="stop-color:#C21975"/>
			<stop  offset="1" style="stop-color:#7024C4"/>
		</linearGradient>
		<path fill="url(#SVGID_7_)" d="M198.37,721.215c0,1.32-0.469,2.476-1.402,3.465c-0.936,0.99-2.091,1.869-3.465,2.641
			c-1.377,0.768-2.805,1.346-4.29,1.732c-1.485,0.384-2.723,0.577-3.713,0.577c-1.871,0-3.934-0.193-6.188-0.577
			c-2.256-0.387-4.153-1.184-5.692-2.393c-1.761-1.429-3.217-3.713-4.372-6.848s-2.037-6.873-2.64-11.22
			c-0.606-4.345-1.019-9.184-1.238-14.521c-0.222-5.334-0.33-10.916-0.33-16.747c0-2.419,0.083-5.115,0.248-8.085
			c0.165-2.971,0.355-6.077,0.577-9.322c0.22-3.244,0.495-6.489,0.825-9.735c0.33-3.243,0.66-6.353,0.99-9.322
			c0.33-2.089,0.714-4.345,1.154-6.766c0.438-2.418,0.908-4.728,1.403-6.93c0.495-2.199,1.072-4.179,1.732-5.94
			c0.66-1.758,1.374-3.023,2.145-3.795c0.879-0.879,2.063-1.456,3.548-1.732c1.484-0.273,2.831-0.412,4.042-0.412
			c2.529,0,4.563,0.66,6.105,1.979c1.539,1.32,2.723,3.109,3.548,5.363c0.824,2.256,1.374,4.841,1.649,7.755
			c0.273,2.916,0.413,6.022,0.413,9.322c0,5.061-0.165,10.534-0.495,16.417c-0.33,5.887-1.019,11.798-2.063,17.738
			c-1.047,5.939-2.532,11.715-4.455,17.324c-1.926,5.61-4.483,10.726-7.673,15.346c0.108,1.541,0.302,3.328,0.577,5.362
			c0.273,2.037,0.687,3.935,1.238,5.692c0.549,1.761,1.263,3.246,2.145,4.455c0.879,1.212,2.034,1.815,3.465,1.815
			c1.32,0,2.364-0.302,3.136-0.908c0.768-0.604,1.456-1.291,2.063-2.063c0.603-0.768,1.209-1.456,1.814-2.063
			c0.604-0.604,1.402-0.907,2.393-0.907c1.099,0,1.841,0.33,2.228,0.99C198.177,719.565,198.37,720.336,198.37,721.215z
			 M185.995,643.665c0-1.099-0.028-2.418-0.082-3.96c-0.057-1.539-0.222-3.053-0.495-4.537c-0.276-1.485-0.634-2.749-1.072-3.796
			c-0.441-1.044-1.047-1.567-1.815-1.567c-1.101,0-1.979,1.542-2.64,4.62c-0.66,3.081-1.184,7.124-1.567,12.128
			c-0.387,5.007-0.66,10.671-0.825,16.995c-0.165,6.326-0.248,12.733-0.248,19.222c0,1.872,0,3.824,0,5.858
			c0,2.036,0.108,3.823,0.33,5.362c3.63-8.688,5.94-17.104,6.931-25.245C185.5,660.605,185.995,652.245,185.995,643.665z"/>
		<linearGradient id="SVGID_8_" gradientUnits="userSpaceOnUse" x1="312.5488" y1="795.6299" x2="312.5488" y2="614.2949">
			<stop  offset="0" style="stop-color:#E09B3D"/>
			<stop  offset="0.3" style="stop-color:#C74C4D"/>
			<stop  offset="0.6" style="stop-color:#C21975"/>
			<stop  offset="1" style="stop-color:#7024C4"/>
		</linearGradient>
		<path fill="url(#SVGID_8_)" d="M252.819,678.924c0.438-0.769,1.209-1.152,2.311-1.152c0.549,0,0.933,0.329,1.154,0.987
			c0.22,0.659,0.33,1.209,0.33,1.647c-0.11,3.402-0.854,6.447-2.228,9.137c-1.377,2.688-2.833,5.021-4.372,6.997
			c-0.882,1.206-1.844,2.305-2.888,3.292c-1.047,0.99-2.119,1.923-3.218,2.8c-0.11,1.866-0.193,3.155-0.247,3.87
			c-0.057,0.714-0.14,1.289-0.248,1.727c-0.222,1.647-0.771,3.733-1.649,6.258c-0.882,2.523-2.119,4.993-3.713,7.406
			c-1.596,2.416-3.521,4.474-5.774,6.175c-2.256,1.702-4.868,2.553-7.838,2.553c-0.99,0-2.119-0.111-3.383-0.327
			c-1.266-0.222-2.558-0.523-3.877-0.905c-1.32-0.387-2.586-0.825-3.795-1.317c-1.212-0.498-2.256-1.019-3.136-1.567
			c-2.75-1.537-5.006-3.347-6.765-5.433c-1.761-2.083-3.109-4.305-4.042-6.667c-0.937-2.358-1.568-4.774-1.897-7.244
			c-0.33-2.47-0.495-4.857-0.495-7.162c0-3.95,0.412-7.956,1.237-12.02c0.825-4.061,1.841-7.956,3.053-11.688
			c1.209-3.731,2.583-7.077,4.125-10.042c1.539-2.965,3.023-5.27,4.455-6.915c1.428-1.536,3.023-2.608,4.784-3.212
			c1.759-0.604,3.354-0.905,4.785-0.905c1.759,0,3.52,0.441,5.28,1.317c1.758,0.879,3.465,1.978,5.115,3.292
			c1.649,1.318,3.271,2.826,4.867,4.527c1.594,1.702,3.106,3.378,4.537,5.022c1.099,1.207,1.924,3.155,2.476,5.845
			c0.549,2.691,0.99,5.406,1.319,8.149c0.22,1.536,0.385,3.184,0.495,4.939c0.108,1.759,0.165,3.568,0.165,5.433
			c1.65-1.315,2.971-2.715,3.96-4.197c0.99-1.48,1.787-2.88,2.393-4.197c0.604-1.317,1.099-2.553,1.485-3.705
			C251.966,680.488,252.379,679.583,252.819,678.924z M233.35,706.53c-1.32,0.882-3.135,1.541-5.445,1.979
			c-2.31,0.441-4.235,0.66-5.774,0.66c-2.971,0-5.255-0.219-6.848-0.66c-1.596-0.438-3.329-1.319-5.198-2.64l-0.164,3.465
			c0,1.212,0.164,2.475,0.494,3.795s0.852,2.532,1.568,3.63c0.714,1.102,1.732,2.009,3.052,2.723c1.32,0.717,2.971,1.072,4.95,1.072
			c2.418,0,4.48-0.467,6.188-1.402c1.704-0.934,3.078-2.116,4.125-3.547c1.044-1.429,1.815-2.971,2.311-4.62
			C233.102,709.335,233.35,707.85,233.35,706.53z M234.092,690.03c-0.057-1.539-0.165-3.354-0.33-5.445
			c-0.165-2.088-0.44-4.262-0.825-6.518c-0.387-2.253-0.936-4.315-1.649-6.188c-0.717-1.869-1.624-3.437-2.723-4.702
			c-1.101-1.264-2.475-1.897-4.125-1.897s-3.246,0.66-4.785,1.979c-1.542,1.32-2.916,3.027-4.125,5.115
			c-1.212,2.091-2.173,4.455-2.888,7.095c-0.717,2.641-1.072,5.227-1.072,7.755c0,4.401,0.879,7.619,2.64,9.653
			c1.759,2.036,4.785,3.052,9.075,3.052c3.189,0,5.801-0.495,7.838-1.484c2.034-0.99,3.053-1.759,3.053-2.311V693
			C234.175,692.562,234.146,691.571,234.092,690.03z"/>
		<linearGradient id="SVGID_9_" gradientUnits="userSpaceOnUse" x1="312.5488" y1="795.6299" x2="312.5488" y2="614.2949">
			<stop  offset="0" style="stop-color:#E09B3D"/>
			<stop  offset="0.3" style="stop-color:#C74C4D"/>
			<stop  offset="0.6" style="stop-color:#C21975"/>
			<stop  offset="1" style="stop-color:#7024C4"/>
		</linearGradient>
		<path fill="url(#SVGID_9_)" d="M303.805,690.195c0,1.649-0.305,2.916-0.907,3.795c-0.606,0.882-1.403,1.541-2.393,1.979
			c-0.99,0.441-2.119,0.743-3.383,0.908c-1.266,0.165-2.503,0.304-3.713,0.412v0.825c0,2.31-0.33,5.226-0.989,8.745
			c-0.66,3.521-1.625,6.93-2.888,10.229c-1.266,3.3-2.862,6.162-4.785,8.58c-1.926,2.418-4.208,3.738-6.848,3.96
			c-0.552,0.108-1.101,0.165-1.649,0.165c-0.552,0-1.102,0-1.65,0c-5.28,0-9.405-1.237-12.375-3.713
			c-2.97-2.475-5.172-5.609-6.6-9.404c-1.432-3.795-2.311-7.946-2.641-12.458c-0.33-4.509-0.495-8.799-0.495-12.87
			c0-9.348,0.934-18.863,2.806-28.545c1.209-0.108,2.31-0.302,3.3-0.577c0.99-0.273,2.088-0.412,3.3-0.412c0.219,0,0.714,0,1.485,0
			c0.768,0,1.567,0.057,2.393,0.165c0.824,0.11,1.567,0.275,2.228,0.494c0.659,0.222,0.989,0.495,0.989,0.825
			c0,0.552-0.057,1.294-0.165,2.228c-0.11,0.936-0.247,1.926-0.412,2.97c-0.165,1.047-0.33,2.063-0.495,3.053
			s-0.304,1.815-0.412,2.476c-0.552,3.852-0.99,7.755-1.32,11.715s-0.495,7.92-0.495,11.88c0,1.542,0.108,3.658,0.33,6.353
			c0.219,2.696,0.66,5.362,1.32,8.002c0.66,2.641,1.621,4.925,2.887,6.848c1.264,1.926,2.942,2.888,5.033,2.888
			c1.979,0,3.573-1.016,4.785-3.053c1.209-2.034,2.145-4.398,2.805-7.095c0.66-2.694,1.099-5.389,1.32-8.085
			c0.219-2.694,0.33-4.757,0.33-6.188c0-0.549-0.358-1.155-1.073-1.815c-0.717-0.659-1.541-1.539-2.475-2.64
			c-0.936-1.099-1.815-2.418-2.64-3.96c-0.825-1.539-1.349-3.408-1.568-5.61V679.8c0-0.879,0.026-1.923,0.083-3.135
			c0.054-1.209,0.165-2.446,0.33-3.713c0.165-1.263,0.384-2.475,0.66-3.63c0.272-1.154,0.631-2.063,1.072-2.723
			c0-0.107,0.19-0.272,0.577-0.494c0.385-0.22,0.797-0.438,1.237-0.66c0.438-0.22,0.88-0.413,1.32-0.578
			c0.438-0.165,0.714-0.247,0.825-0.247c0.33,0,0.797,0.057,1.402,0.165c0.604,0.11,1.264,0.222,1.98,0.33
			c0.714,0.11,1.374,0.247,1.979,0.412c0.604,0.165,1.016,0.305,1.237,0.413c0.55,0.329,0.88,0.853,0.99,1.567
			c0.108,0.717,0.273,1.294,0.495,1.732c0.549,1.761,0.962,3.382,1.237,4.867c0.273,1.485,0.438,2.97,0.495,4.455
			c0.054,1.485,0.108,3.026,0.165,4.62c0.054,1.596,0.137,3.383,0.247,5.362c0,0.33,0.521,0.688,1.568,1.072
			c1.044,0.387,1.732,0.578,2.063,0.578c1.539,0,2.805-0.438,3.795-1.32c0.989-0.879,1.649-1.32,1.979-1.32
			c0.549,0,0.907,0.358,1.072,1.073C303.722,689.344,303.805,689.865,303.805,690.195z"/>
		<linearGradient id="SVGID_10_" gradientUnits="userSpaceOnUse" x1="312.5488" y1="795.6299" x2="312.5488" y2="614.2949">
			<stop  offset="0" style="stop-color:#E09B3D"/>
			<stop  offset="0.3" style="stop-color:#C74C4D"/>
			<stop  offset="0.6" style="stop-color:#C21975"/>
			<stop  offset="1" style="stop-color:#7024C4"/>
		</linearGradient>
		<path fill="url(#SVGID_10_)" d="M352.809,700.59c0,2.751-0.495,5.832-1.485,9.24c-0.99,3.411-2.532,6.574-4.62,9.487
			c-2.091,2.916-4.759,5.362-8.002,7.343c-3.246,1.979-7.124,2.97-11.633,2.97c-4.29,0-7.92-0.771-10.891-2.31
			c-2.97-1.539-5.419-3.63-7.342-6.271c-1.926-2.64-3.3-5.746-4.125-9.322c-0.825-3.573-1.237-7.343-1.237-11.303
			c0-3.849,0.438-8.085,1.319-12.705c0.879-4.62,2.254-8.936,4.125-12.952c1.869-4.015,4.233-7.368,7.096-10.065
			c2.858-2.693,6.323-4.042,10.395-4.042c1.98,0,3.85,0.412,5.61,1.237c1.758,0.825,3.3,1.897,4.62,3.218
			c1.319,1.319,2.363,2.861,3.135,4.62c0.768,1.761,1.209,3.575,1.319,5.444l0.165,2.311c0,2.64-0.44,5.527-1.319,8.662
			c-0.882,3.135-2.146,6.051-3.795,8.745c-1.65,2.696-3.688,4.95-6.105,6.765c-2.421,1.815-5.172,2.723-8.25,2.723
			c-0.552,0-1.237-0.054-2.063-0.165c-0.825-0.108-1.624-0.273-2.393-0.495v4.785c0,0.771,0.248,1.872,0.743,3.3
			c0.494,1.432,1.237,2.834,2.227,4.208c0.99,1.377,2.282,2.586,3.878,3.63c1.594,1.047,3.548,1.567,5.857,1.567
			c3.189,0,5.801-0.632,7.838-1.897c2.034-1.263,3.712-2.888,5.032-4.867c1.32-1.98,2.336-4.208,3.053-6.683
			c0.714-2.475,1.291-4.867,1.732-7.178c0.33-1.539,0.66-2.583,0.99-3.135c0.33-0.549,0.879-0.825,1.649-0.825
			c1.65,0,2.476,0.936,2.476,2.805V700.59z M333.338,675.015c0-0.879-0.247-1.814-0.742-2.805s-1.402-1.485-2.723-1.485
			c-1.979,0-3.687,1.047-5.115,3.136c-1.431,2.091-2.614,4.483-3.547,7.177c-0.937,2.697-1.624,5.28-2.063,7.756
			c-0.441,2.475-0.66,4.099-0.66,4.867v0.495c0,0.989,0.082,1.789,0.247,2.393c0.165,0.605,0.743,0.907,1.732,0.907h0.825
			c2.199,0,4.068-0.825,5.61-2.475c1.539-1.65,2.776-3.631,3.712-5.94c0.934-2.31,1.622-4.674,2.063-7.095
			c0.438-2.419,0.66-4.398,0.66-5.94V675.015z"/>
		<linearGradient id="SVGID_11_" gradientUnits="userSpaceOnUse" x1="312.5488" y1="795.6299" x2="312.5488" y2="614.2949">
			<stop  offset="0" style="stop-color:#E09B3D"/>
			<stop  offset="0.3" style="stop-color:#C74C4D"/>
			<stop  offset="0.6" style="stop-color:#C21975"/>
			<stop  offset="1" style="stop-color:#7024C4"/>
		</linearGradient>
		<path fill="url(#SVGID_11_)" d="M403.626,730.29c0,1.099-0.495,1.869-1.485,2.31c-0.989,0.438-1.926,0.66-2.805,0.66l-3.3-0.33
			c-0.552,0-0.825,0.33-0.825,0.99l-0.165,1.98c0.108,2.97,0.165,6.708,0.165,11.22c0,4.509,0,8.854,0,13.035
			c0,4.398-0.139,8.717-0.412,12.952c-0.276,4.233-0.908,8.028-1.897,11.385c-0.99,3.354-2.393,6.049-4.208,8.085
			c-1.814,2.034-4.318,3.053-7.507,3.053c-2.751,0-5.639-0.139-8.663-0.412c-3.026-0.276-5.774-0.965-8.25-2.063
			c-2.475-1.102-4.512-2.723-6.104-4.868c-1.597-2.145-2.393-5.032-2.393-8.662s0.415-7.343,1.245-11.138s2.019-7.481,3.57-11.055
			c1.55-3.576,3.403-6.987,5.562-10.23c2.157-3.245,4.512-6.133,7.059-8.662c1.328-1.32,2.795-2.668,4.4-4.043
			c1.604-1.376,3.017-2.503,4.233-3.382v-0.165c0.22-2.311,0.385-4.62,0.495-6.931c0.108-2.31,0.165-4.674,0.165-7.095
			c-0.554,0.99-1.217,2.339-1.99,4.043c-0.773,1.706-1.686,3.328-2.735,4.867c-1.052,1.539-2.24,2.888-3.565,4.043
			c-1.328,1.154-2.82,1.732-4.476,1.732c-0.887,0-1.66-0.165-2.323-0.495c-0.665-0.33-1.604-0.495-2.817-0.495
			c-3.097-0.222-5.667-1.047-7.711-2.476c-2.048-1.431-3.648-3.408-4.809-5.939c-1.16-2.529-1.962-5.527-2.405-8.992
			c-0.443-3.466-0.663-7.343-0.663-11.633c0-5.169,0.302-10.503,0.91-16.005c0.608-5.499,1.684-10.532,3.23-15.098
			c1.545-4.563,3.614-8.304,6.211-11.22c2.594-2.914,5.878-4.373,9.854-4.373c0.44,0,1.021,0.165,1.74,0.495
			c0.717,0.33,1.49,0.688,2.317,1.072c0.828,0.387,1.655,0.771,2.485,1.155c0.828,0.387,1.462,0.635,1.905,0.742
			c2.207,0.441,4.252,0.99,6.129,1.65c1.876,0.66,3.478,1.514,4.803,2.558c1.325,1.047,2.372,2.421,3.146,4.125
			c0.773,1.707,1.16,3.823,1.16,6.353c0,1.761-0.14,3.356-0.413,4.785c-0.275,1.431-0.412,3.245-0.412,5.444
			c0,0.882,0.312,1.485,0.938,1.815c0.624,0.33,1.341,0.605,2.145,0.825c0.805,0.222,1.537,0.469,2.197,0.742
			c0.659,0.276,0.989,0.854,0.989,1.732c0,0.222-0.247,0.742-0.742,1.567s-0.799,1.349-0.907,1.567
			c-0.33,0.882-0.606,2.284-0.825,4.208c-0.222,1.926-0.387,4.017-0.495,6.27c-0.11,2.256-0.193,4.566-0.247,6.931
			c-0.057,2.366-0.083,4.483-0.083,6.353c0,1.431,0,3.328,0,5.692c0,2.366,0.055,4.318,0.165,5.857h0.66
			c0.219,0,0.438-0.028,0.66-0.083c0.219-0.057,0.384-0.082,0.495-0.082c0.989,0,2.336,0.302,4.042,0.907
			C402.772,728.171,403.626,729.078,403.626,730.29z M382.671,679.305c0-1.209-0.11-2.583-0.332-4.125
			c-0.222-1.539-0.611-2.995-1.163-4.372c-0.555-1.374-1.358-2.529-2.41-3.465c-1.053-0.934-2.354-1.402-3.906-1.402
			c-2.104,0-4.071,0.824-5.898,2.475c-1.831,1.65-3.437,3.988-4.821,7.013c-1.385,3.026-2.493,6.711-3.323,11.055
			c-0.83,4.347-1.245,9.269-1.245,14.768c0,2.31,0.082,4.702,0.247,7.178c0.165,2.475,0.438,4.702,0.825,6.683
			c0.384,1.979,0.99,3.63,1.815,4.949c0.824,1.32,1.897,1.98,3.217,1.98c2.311,0,4.345-0.99,6.105-2.97
			c1.758-1.98,3.218-4.427,4.372-7.343c1.155-2.913,2.034-5.94,2.641-9.075c0.603-3.135,0.961-5.857,1.072-8.167
			c0.116-3.189,0.291-5.363,0.525-6.518c0.232-1.155,0.467-1.897,0.701-2.228c0.702-0.879,1.14-1.924,1.315-3.135
			C382.583,681.396,382.671,680.295,382.671,679.305z M382.011,736.56c-2.552,1.759-4.968,4.233-7.241,7.426
			c-2.277,3.188-4.247,6.653-5.912,10.395c-1.665,3.738-2.968,7.533-3.911,11.385c-0.943,3.85-1.415,7.314-1.415,10.396
			c0,1.098,0.11,2.31,0.332,3.63s0.583,2.558,1.083,3.713c0.5,1.154,1.22,2.116,2.163,2.887c0.943,0.769,2.081,1.155,3.413,1.155
			c2.331,0,4.247-0.964,5.744-2.888c1.498-1.926,2.664-4.207,3.496-6.848c0.833-2.64,1.388-5.336,1.666-8.085
			c0.278-2.75,0.417-4.949,0.417-6.6c0-0.33,0-0.825,0-1.485c0-0.659,0.026-1.926,0.083-3.795c0.054-1.871,0.082-4.483,0.082-7.837
			C382.011,746.65,382.011,742.17,382.011,736.56z"/>
		<linearGradient id="SVGID_12_" gradientUnits="userSpaceOnUse" x1="312.5488" y1="795.6299" x2="312.5488" y2="614.2949">
			<stop  offset="0" style="stop-color:#E09B3D"/>
			<stop  offset="0.3" style="stop-color:#C74C4D"/>
			<stop  offset="0.6" style="stop-color:#C21975"/>
			<stop  offset="1" style="stop-color:#7024C4"/>
		</linearGradient>
		<path fill="url(#SVGID_12_)" d="M452.959,702.735c0,0.771-0.247,2.614-0.742,5.527c-0.495,2.916-1.377,5.996-2.64,9.24
			c-1.267,3.245-2.971,6.133-5.115,8.662c-2.146,2.529-4.868,3.795-8.168,3.795c-3.521,0-6.326-1.237-8.415-3.713
			c-2.091-2.475-3.687-5.444-4.785-8.909c-1.101-3.466-1.814-7.096-2.145-10.891s-0.495-6.955-0.495-9.487
			c0-2.859,0.165-5.747,0.495-8.662c0.33-2.914,0.549-5.801,0.66-8.663c0-0.879-0.441-1.428-1.32-1.649
			c-0.882-0.22-1.707-0.33-2.475-0.33c-1.32,0-2.146,0.165-2.476,0.495s-0.552,0.717-0.66,1.154l-0.659,5.28
			c-0.441,3.521-0.908,6.904-1.403,10.147c-0.494,3.246-1.046,6.105-1.649,8.58c-0.606,2.475-1.32,4.455-2.146,5.94
			c-0.824,1.484-1.789,2.228-2.887,2.228h-0.165c-0.441,0-0.854-0.108-1.238-0.33c-0.384-0.22-0.577-0.769-0.577-1.65
			c0-0.438,0.111-1.099,0.33-1.98c0.879-3.849,1.429-7.038,1.65-9.569c0.219-2.529,0.384-4.785,0.494-6.766v-1.154
			c0-0.55,0.026-1.209,0.083-1.98c0.054-0.769,0.082-1.704,0.082-2.805v-4.29c0-1.209,0-2.475,0-3.795s-0.11-2.748-0.329-4.29
			l-0.495-9.735c0-0.66,0.272-1.263,0.824-1.814c0.55-0.55,1.264-1.045,2.146-1.485c0.879-0.438,1.814-0.769,2.805-0.99
			c0.99-0.219,1.869-0.33,2.641-0.33c1.869,0,2.805,1.212,2.805,3.63v0.825l-0.165,3.63v0.99c0,0.771,0.165,1.237,0.495,1.402
			s0.99,0.358,1.979,0.578h0.495c0.879,0.11,2.311,0.222,4.29,0.33c1.98,0.11,3.96,0.33,5.94,0.659
			c1.979,0.33,3.712,0.854,5.197,1.568c1.485,0.716,2.228,1.732,2.228,3.052c0,0.441-0.111,1.073-0.33,1.897
			c-0.222,0.825-0.495,1.65-0.825,2.476s-0.605,1.567-0.825,2.228c-0.222,0.66-0.329,1.101-0.329,1.319
			c-1.98,7.591-2.971,15.511-2.971,23.761c0,0.659,0.055,1.871,0.165,3.63c0.108,1.761,0.33,3.575,0.66,5.444
			c0.33,1.872,0.825,3.522,1.485,4.95c0.66,1.431,1.484,2.146,2.475,2.146c1.65,0,3.135-1.016,4.455-3.053
			c1.32-2.034,2.475-4.398,3.465-7.095c0.99-2.694,1.787-5.417,2.393-8.168c0.604-2.748,1.016-4.785,1.237-6.104
			c0.22-1.21,0.578-1.952,1.073-2.228c0.494-0.273,0.961-0.413,1.402-0.413c1.539,0,2.31,0.99,2.31,2.971
			c0,0.222-0.028,0.799-0.082,1.732C453.15,701.608,453.067,702.297,452.959,702.735z"/>
		<linearGradient id="SVGID_13_" gradientUnits="userSpaceOnUse" x1="312.5488" y1="795.6299" x2="312.5488" y2="614.2949">
			<stop  offset="0" style="stop-color:#E09B3D"/>
			<stop  offset="0.3" style="stop-color:#C74C4D"/>
			<stop  offset="0.6" style="stop-color:#C21975"/>
			<stop  offset="1" style="stop-color:#7024C4"/>
		</linearGradient>
		<path fill="url(#SVGID_13_)" d="M513.514,708.015c-0.222,1.542-0.771,3.357-1.65,5.445c-0.882,2.091-2.009,4.1-3.383,6.022
			c-1.376,1.926-2.97,3.548-4.784,4.867c-1.815,1.32-3.824,1.98-6.023,1.98c-3.3,0-6.188-1.264-8.662-3.795
			c-2.475-2.529-3.988-6.105-4.537-10.726c-0.66,1.762-1.432,3.796-2.311,6.105c-0.882,2.31-1.979,4.455-3.3,6.435
			c-1.32,1.98-2.833,3.656-4.537,5.033c-1.707,1.374-3.713,2.063-6.022,2.063c-0.66,0-1.155-0.057-1.485-0.165
			c-0.33-0.111-0.688-0.248-1.072-0.413c-0.387-0.165-0.825-0.304-1.32-0.412c-0.495-0.111-1.184-0.165-2.063-0.165
			c-2.64,0-4.867-0.854-6.683-2.558c-1.814-1.707-3.274-3.877-4.372-6.518c-1.102-2.64-1.897-5.527-2.393-8.662
			s-0.743-6.077-0.743-8.828c0-6.6,0.356-12.869,1.073-18.81c0.714-5.94,1.897-11.191,3.547-15.758
			c1.65-4.563,3.795-8.193,6.436-10.89c2.64-2.694,5.829-4.043,9.569-4.043c2.199,0,3.878,0.193,5.033,0.578
			c1.154,0.387,2.228,0.825,3.217,1.319c0.99,0.495,2.063,1.019,3.218,1.568c1.155,0.552,2.776,0.989,4.868,1.319
			c2.31,1.32,3.932,2.888,4.867,4.703c0.934,1.814,1.539,3.769,1.814,5.857c0.273,2.091,0.356,4.264,0.248,6.518
			c-0.111,2.256,0,4.483,0.33,6.682c0,0.111,0.247,0.276,0.742,0.495c0.495,0.222,1.072,0.47,1.732,0.743
			c0.66,0.275,1.237,0.66,1.732,1.154c0.495,0.495,0.743,1.13,0.743,1.897v0.66c-1.102,2.862-1.762,5.392-1.98,7.59
			c-0.222,2.202-0.33,4.842-0.33,7.921c0,1.541,0.083,3.217,0.248,5.032c0.165,1.814,0.438,3.521,0.824,5.115
			c0.385,1.596,0.962,2.915,1.732,3.96c0.769,1.046,1.759,1.567,2.971,1.567c1.319,0,2.501-0.66,3.547-1.98
			c1.045-1.319,1.924-2.831,2.641-4.537c0.714-1.704,1.319-3.437,1.814-5.197c0.495-1.759,0.797-3.079,0.908-3.96
			c0.219-1.32,0.768-1.98,1.649-1.98c0.549,0,1.072,0.305,1.567,0.907c0.495,0.606,0.743,1.679,0.743,3.218c0,0.44,0,0.854,0,1.237
			C513.679,706.999,513.622,707.466,513.514,708.015z M482.988,681.285c0-1.209-0.11-2.641-0.33-4.29
			c-0.222-1.65-0.605-3.189-1.155-4.62c-0.552-1.429-1.376-2.64-2.475-3.63c-1.101-0.99-2.586-1.485-4.455-1.485
			c-3.081,0-5.584,1.402-7.508,4.208c-1.926,2.805-3.438,6.104-4.537,9.899c-1.101,3.795-1.815,7.701-2.145,11.715
			c-0.33,4.018-0.495,7.178-0.495,9.488c0,1.761,0.082,3.877,0.247,6.353c0.165,2.475,0.467,4.813,0.907,7.012
			c0.438,2.202,1.073,4.071,1.897,5.61c0.825,1.542,1.897,2.311,3.218,2.311c3.189,0,5.636-1.238,7.343-3.713
			c1.704-2.475,2.996-5.554,3.877-9.24c0.88-3.684,1.511-7.644,1.897-11.88c0.385-4.233,0.743-8.11,1.073-11.633
			c0.219-1.869,0.714-3.052,1.484-3.547c0.769-0.495,1.155-0.851,1.155-1.073V681.285z"/>
		<linearGradient id="SVGID_14_" gradientUnits="userSpaceOnUse" x1="312.5488" y1="795.6299" x2="312.5488" y2="614.2949">
			<stop  offset="0" style="stop-color:#E09B3D"/>
			<stop  offset="0.3" style="stop-color:#C74C4D"/>
			<stop  offset="0.6" style="stop-color:#C21975"/>
			<stop  offset="1" style="stop-color:#7024C4"/>
		</linearGradient>
		<path fill="url(#SVGID_14_)" d="M564.002,685.41c-1.542,2.97-2.97,6.104-4.29,9.405c-1.32,3.3-2.31,5.886-2.97,7.755
			c-0.111,0.552-0.413,1.706-0.908,3.465c-0.494,1.761-1.046,3.712-1.649,5.857c-0.606,2.145-1.13,4.264-1.567,6.353
			c-0.441,2.091-0.66,3.795-0.66,5.115c0,0.552-0.495,1.046-1.485,1.484c-0.99,0.441-2.256,0.66-3.795,0.66
			c-2.421,0-4.347-0.33-5.774-0.99c-1.432-0.659-2.504-1.732-3.218-3.217c-0.717-1.485-1.155-3.437-1.32-5.857
			c-0.165-2.419-0.247-5.335-0.247-8.745V694.32c0-0.88-0.028-1.759-0.083-2.641c-0.057-0.879-0.247-1.428-0.577-1.649
			c-0.552,0.222-1.237,1.649-2.063,4.29c-0.825,2.64-1.596,5.857-2.311,9.652c-0.717,3.795-1.348,7.783-1.897,11.962
			c-0.552,4.183-0.824,7.921-0.824,11.221c0,1.209-0.635,1.923-1.897,2.145c-1.267,0.22-2.669,0.33-4.208,0.33
			c-0.44,0-1.184-0.082-2.228-0.247c-1.047-0.165-2.091-0.358-3.135-0.578c-1.047-0.222-2.009-0.523-2.888-0.907
			c-0.882-0.387-1.431-0.854-1.65-1.402c-0.552-1.429-0.964-3.795-1.237-7.095c-0.275-3.301-0.412-8.415-0.412-15.346
			c0-4.068,0.082-8.799,0.247-14.189c0.165-5.389,0.356-11.715,0.578-18.976c0-0.989-0.057-2.281-0.165-3.877
			c-0.111-1.594-0.165-2.501-0.165-2.723c0-0.879,0.355-1.402,1.072-1.567c0.714-0.165,1.237-0.248,1.567-0.248
			c0.769,0,1.676,0.083,2.723,0.248c1.044,0.165,2.088,0.358,3.135,0.577c1.044,0.222,2.006,0.47,2.888,0.743
			c0.879,0.275,1.485,0.522,1.815,0.742v39.765c0.549-2.199,1.181-4.757,1.897-7.672c0.714-2.914,1.539-5.801,2.475-8.663
			c0.934-2.859,1.951-5.499,3.053-7.92c1.098-2.418,2.253-4.179,3.465-5.28c0.438-0.33,1.263-0.577,2.475-0.742
			c1.209-0.165,2.199-0.247,2.971-0.247c0.549,0,1.237,0.082,2.063,0.247c0.824,0.165,1.621,0.412,2.392,0.742
			c0.769,0.33,1.457,0.743,2.063,1.238c0.604,0.494,0.962,1.072,1.073,1.732v26.729v1.485c0,0.66,0.108,0.99,0.327,0.99
			c0.217,0,0.846-1.485,1.885-4.455c1.039-2.971,2.269-6.489,3.691-10.561c1.424-4.068,2.955-8.25,4.595-12.54
			s3.114-7.698,4.429-10.229c0.217-0.438,0.954-0.687,2.212-0.743c1.259-0.054,2.38-0.082,3.365-0.082
			c0.763,0,1.802,0.247,3.114,0.742s2.599,1.184,3.859,2.063c1.261,0.882,2.358,1.872,3.295,2.971
			c0.933,1.101,1.402,2.256,1.402,3.465c0,0.222-0.33,0.854-0.99,1.897c-0.66,1.047-1.101,2.119-1.32,3.217
			c-0.771,3.081-1.294,6.105-1.567,9.075c-0.275,2.971-0.412,6.766-0.412,11.385c0,1.98,0.082,3.961,0.247,5.94
			c0.165,1.98,0.438,3.77,0.825,5.362c0.385,1.596,0.907,2.888,1.567,3.878s1.539,1.484,2.641,1.484
			c1.539,0,2.913-0.521,4.125-1.567c1.209-1.044,2.253-2.446,3.135-4.207c0.879-1.759,1.65-3.821,2.31-6.188
			c0.66-2.364,1.21-4.811,1.65-7.343c0.549-2.64,1.539-3.96,2.97-3.96c0.879,0,1.457,0.222,1.732,0.66
			c0.273,0.44,0.413,1.431,0.413,2.97c0,0.882-0.057,1.485-0.165,1.815c-0.111,1.431-0.578,3.658-1.402,6.683
			c-0.825,3.026-1.98,6.051-3.466,9.074c-1.484,3.027-3.328,5.667-5.527,7.921c-2.201,2.253-4.73,3.382-7.59,3.382
			c-3.397,0-6.183-0.799-8.353-2.393c-2.174-1.593-3.857-3.738-5.054-6.435c-1.196-2.694-2.036-5.801-2.526-9.322
			c-0.49-3.52-0.732-7.204-0.732-11.056v-1.154L564.002,685.41z"/>
	</g>
</g>
</svg>
