<?xml version="1.0" encoding="utf-8"?>
<!-- Generator: Adobe Illustrator 16.0.0, SVG Export Plug-In . SVG Version: 6.00 Build 0)  -->
<!DOCTYPE svg PUBLIC "-//W3C//DTD SVG 1.1//EN" "http://www.w3.org/Graphics/SVG/1.1/DTD/svg11.dtd">
<svg version="1.1" id="Слой_1" xmlns="http://www.w3.org/2000/svg" xmlns:xlink="http://www.w3.org/1999/xlink" x="0px" y="0px"
	 width="64px" height="64px" viewBox="0 0 64 64" enable-background="new 0 0 64 64" xml:space="preserve">
<linearGradient id="SVGID_1_" gradientUnits="userSpaceOnUse" x1="31.6875" y1="727.4365" x2="31.6875" y2="778.6432" gradientTransform="matrix(1 0 0 1 0 -727)">
	<stop  offset="0" style="stop-color:#E09B3D"/>
	<stop  offset="0.3" style="stop-color:#C74C4D"/>
	<stop  offset="0.6" style="stop-color:#C21975"/>
	<stop  offset="1" style="stop-color:#7024C4"/>
</linearGradient>
<path fill="url(#SVGID_1_)" d="M43.688,50.77h-24c-7.168,0-13-5.832-13-13v-24c0-7.168,5.832-13,13-13h24c7.168,0,13,5.832,13,13v24
	C56.688,44.938,50.855,50.77,43.688,50.77z M19.688,2.77c-6.065,0-11,4.935-11,11v24c0,6.063,4.935,11,11,11h24
	c6.064,0,11-4.937,11-11v-24c0-6.065-4.936-11-11-11H19.688z"/>
<linearGradient id="SVGID_2_" gradientUnits="userSpaceOnUse" x1="31.6875" y1="740.3174" x2="31.6875" y2="767.831" gradientTransform="matrix(1 0 0 1 0 -727)">
	<stop  offset="0" style="stop-color:#E09B3D"/>
	<stop  offset="0.3" style="stop-color:#C74C4D"/>
	<stop  offset="0.6" style="stop-color:#C21975"/>
	<stop  offset="1" style="stop-color:#7024C4"/>
</linearGradient>
<path fill="url(#SVGID_2_)" d="M31.688,40.151c-7.168,0-13-5.832-13-13s5.832-13,13-13c7.167,0,13,5.832,13,13
	S38.855,40.151,31.688,40.151z M31.688,18.151c-4.962,0-9,4.038-9,9s4.038,9,9,9c4.962,0,9-4.037,9-9
	C40.688,22.189,36.65,18.151,31.688,18.151z"/>
<linearGradient id="SVGID_3_" gradientUnits="userSpaceOnUse" x1="45.6875" y1="731.5195" x2="45.6875" y2="741.8182" gradientTransform="matrix(1 0 0 1 0 -727)">
	<stop  offset="0" style="stop-color:#E09B3D"/>
	<stop  offset="0.3" style="stop-color:#C74C4D"/>
	<stop  offset="0.6" style="stop-color:#C21975"/>
	<stop  offset="1" style="stop-color:#7024C4"/>
</linearGradient>
<circle fill="url(#SVGID_3_)" cx="45.688" cy="9.77" r="3"/>
<g>
	<g>
		
			<linearGradient id="SVGID_4_" gradientUnits="userSpaceOnUse" x1="9.3086" y1="12.7583" x2="9.3086" y2="1.7707" gradientTransform="matrix(1 0 0 -1 0 65)">
			<stop  offset="0" style="stop-color:#E09B3D"/>
			<stop  offset="0.3" style="stop-color:#C74C4D"/>
			<stop  offset="0.6" style="stop-color:#C21975"/>
			<stop  offset="1" style="stop-color:#7024C4"/>
		</linearGradient>
		<path fill="url(#SVGID_4_)" d="M11.348,57.431c0,0.18-0.023,0.372-0.069,0.574c-0.045,0.203-0.137,0.391-0.274,0.561
			c-0.137,0.17-0.33,0.313-0.579,0.426s-0.577,0.17-0.982,0.17c-0.365,0-0.632-0.019-0.799-0.056
			c-0.167-0.036-0.307-0.078-0.419-0.125c-0.102,0.033-0.183,0.062-0.244,0.08c-0.061,0.021-0.12,0.038-0.175,0.056
			c-0.056,0.017-0.099,0.024-0.129,0.024c-0.071,0-0.135-0.017-0.19-0.05c-0.055-0.033-0.099-0.103-0.129-0.205
			c-0.03-0.104-0.053-0.246-0.068-0.43c-0.015-0.185-0.023-0.427-0.023-0.727c0-0.479,0.01-1.141,0.031-1.979
			c0.02-0.84,0.04-1.924,0.061-3.25c0-0.066-0.01-0.106-0.03-0.121c-0.021-0.014-0.03-0.025-0.03-0.039
			c0-0.04,0.058-0.066,0.175-0.08c0.117-0.014,0.19-0.02,0.221-0.02c0.031,0,0.112,0.006,0.244,0.02s0.267,0.033,0.404,0.06
			c0.137,0.027,0.261,0.063,0.373,0.105c0.112,0.042,0.167,0.095,0.167,0.155c-0.041,0.08-0.076,0.147-0.106,0.205
			c-0.031,0.057-0.059,0.108-0.084,0.158c-0.025,0.051-0.038,0.085-0.038,0.105c-0.051,0.253-0.089,0.472-0.114,0.654
			c-0.025,0.184-0.045,0.377-0.061,0.58s-0.031,0.438-0.046,0.705c-0.015,0.268-0.038,0.613-0.068,1.039
			c0.051-0.066,0.099-0.15,0.145-0.255c0.046-0.103,0.104-0.205,0.175-0.305c0.071-0.101,0.16-0.187,0.266-0.261
			c0.107-0.072,0.251-0.109,0.434-0.109c0.082,0,0.195,0.021,0.343,0.061c0.147,0.041,0.261,0.066,0.343,0.08
			c0.284,0.039,0.51,0.146,0.678,0.314s0.297,0.367,0.388,0.59c0.091,0.225,0.15,0.452,0.175,0.686
			C11.335,57.064,11.348,57.265,11.348,57.431z M10.236,57.19c0-0.02-0.002-0.072-0.008-0.16c-0.005-0.086-0.015-0.187-0.03-0.3
			c-0.015-0.112-0.038-0.233-0.068-0.364c-0.031-0.131-0.074-0.248-0.13-0.354s-0.124-0.195-0.206-0.265
			c-0.081-0.07-0.183-0.105-0.304-0.105c-0.163,0-0.315,0.094-0.457,0.279c-0.142,0.187-0.267,0.412-0.373,0.676
			s-0.19,0.535-0.251,0.814s-0.091,0.51-0.091,0.689c0,0.072,0.002,0.152,0.008,0.234c0.005,0.084,0.018,0.162,0.038,0.234
			c0.122,0.034,0.213,0.063,0.274,0.085c0.061,0.023,0.112,0.044,0.152,0.062c0.04,0.017,0.084,0.027,0.129,0.035
			c0.046,0.007,0.104,0.01,0.175,0.01c0.264,0,0.472-0.068,0.624-0.205c0.152-0.137,0.267-0.293,0.343-0.471
			c0.076-0.176,0.125-0.352,0.145-0.524S10.236,57.265,10.236,57.19z"/>
		
			<linearGradient id="SVGID_5_" gradientUnits="userSpaceOnUse" x1="13.7241" y1="12.7568" x2="13.7241" y2="1.7697" gradientTransform="matrix(1 0 0 -1 0 65)">
			<stop  offset="0" style="stop-color:#E09B3D"/>
			<stop  offset="0.3" style="stop-color:#C74C4D"/>
			<stop  offset="0.6" style="stop-color:#C21975"/>
			<stop  offset="1" style="stop-color:#7024C4"/>
		</linearGradient>
		<path fill="url(#SVGID_5_)" d="M13.982,54.38c0,0.048-0.036,0.086-0.107,0.115s-0.15,0.053-0.236,0.064
			c-0.086,0.014-0.17,0.023-0.251,0.029c-0.081,0.008-0.132,0.011-0.152,0.011c-0.213,0-0.424-0.04-0.632-0.12
			s-0.398-0.206-0.571-0.38c-0.021-0.021-0.051-0.047-0.092-0.08s-0.061-0.058-0.061-0.069c0-0.033,0.038-0.063,0.114-0.091
			c0.076-0.026,0.162-0.053,0.259-0.08c0.096-0.026,0.188-0.046,0.274-0.06s0.145-0.02,0.175-0.02c0.203,0,0.403,0.032,0.602,0.1
			c0.198,0.066,0.358,0.189,0.479,0.369c0.021,0.021,0.059,0.056,0.114,0.104C13.954,54.327,13.982,54.36,13.982,54.38z
			 M15.536,57.411c-0.03,0.159-0.086,0.326-0.167,0.5c-0.082,0.174-0.196,0.336-0.343,0.484c-0.147,0.15-0.333,0.273-0.556,0.37
			c-0.224,0.097-0.498,0.146-0.822,0.146c-0.254,0-0.513-0.057-0.777-0.17c-0.264-0.119-0.444-0.277-0.541-0.471
			c-0.097-0.193-0.145-0.38-0.145-0.561c0-0.053,0.005-0.133,0.016-0.239c0.01-0.106,0.015-0.236,0.015-0.39v-1.102
			c0-0.053-0.003-0.109-0.008-0.17s-0.018-0.116-0.038-0.17c-0.01-0.026-0.028-0.057-0.053-0.09
			c-0.025-0.033-0.038-0.057-0.038-0.07c0-0.025,0.025-0.048,0.076-0.064c0.051-0.016,0.106-0.027,0.167-0.035
			c0.061-0.006,0.147-0.01,0.259-0.01c0.031,0,0.102,0.002,0.213,0.006c0.112,0.002,0.229,0.015,0.35,0.035
			c0.122,0.02,0.231,0.051,0.328,0.094c0.096,0.043,0.145,0.104,0.145,0.186c0.01,0.021-0.007,0.057-0.053,0.11
			c-0.046,0.053-0.089,0.146-0.129,0.28c-0.01,0.053-0.021,0.102-0.03,0.145c-0.01,0.044-0.021,0.092-0.031,0.146
			c-0.01,0.053-0.021,0.117-0.03,0.193c-0.01,0.077-0.021,0.176-0.031,0.295v0.602c0,0.105,0.005,0.215,0.016,0.324
			c0.01,0.109,0.033,0.211,0.068,0.301s0.094,0.162,0.175,0.22c0.081,0.057,0.188,0.085,0.32,0.085c0.192,0,0.345-0.036,0.457-0.109
			c0.112-0.074,0.198-0.137,0.259-0.189c0.112-0.1,0.198-0.225,0.259-0.375s0.116-0.305,0.167-0.465l0.03-0.102
			c0.03-0.1,0.122-0.148,0.274-0.148s0.229,0.068,0.229,0.209v0.051L15.536,57.411z"/>
		
			<linearGradient id="SVGID_6_" gradientUnits="userSpaceOnUse" x1="17.248" y1="12.7568" x2="17.248" y2="1.7692" gradientTransform="matrix(1 0 0 -1 0 65)">
			<stop  offset="0" style="stop-color:#E09B3D"/>
			<stop  offset="0.3" style="stop-color:#C74C4D"/>
			<stop  offset="0.6" style="stop-color:#C21975"/>
			<stop  offset="1" style="stop-color:#7024C4"/>
		</linearGradient>
		<path fill="url(#SVGID_6_)" d="M19.388,57.091c0,0.279-0.038,0.545-0.113,0.795c-0.075,0.25-0.188,0.467-0.338,0.65
			c-0.15,0.183-0.341,0.33-0.573,0.438c-0.231,0.11-0.5,0.165-0.804,0.165c-0.274,0-0.508-0.035-0.701-0.104
			c-0.193-0.07-0.29-0.192-0.29-0.365c0-0.073,0.038-0.131,0.114-0.17c0.076-0.041,0.145-0.062,0.206-0.062
			c0.081,0,0.14,0.017,0.175,0.045c0.036,0.03,0.071,0.063,0.106,0.101c0.036,0.037,0.076,0.069,0.122,0.101
			c0.045,0.03,0.119,0.045,0.221,0.045c0.172,0,0.307-0.053,0.403-0.16c0.097-0.106,0.17-0.239,0.221-0.399
			c0.05-0.159,0.083-0.332,0.099-0.521c0.016-0.187,0.023-0.358,0.023-0.521v-0.459c0-0.094-0.005-0.205-0.015-0.336
			c-0.01-0.129-0.036-0.254-0.076-0.369c-0.04-0.116-0.104-0.217-0.19-0.301s-0.201-0.125-0.343-0.125
			c-0.213,0-0.398,0.103-0.556,0.306c-0.158,0.202-0.287,0.46-0.388,0.771c-0.102,0.311-0.175,0.653-0.221,1.029
			c-0.046,0.377-0.069,0.738-0.069,1.085v0.892c0.01,0.133,0.021,0.25,0.031,0.35c0.01,0.1,0.022,0.193,0.038,0.279
			c0.015,0.086,0.035,0.172,0.061,0.256c0.025,0.082,0.059,0.178,0.099,0.285c0.01,0.02,0.048,0.037,0.114,0.055
			c0.066,0.017,0.099,0.048,0.099,0.095c0,0.054-0.028,0.097-0.084,0.125c-0.056,0.03-0.127,0.054-0.213,0.07
			s-0.181,0.026-0.282,0.03c-0.102,0.002-0.193,0.004-0.274,0.004h-0.213c-0.122,0-0.244-0.012-0.365-0.034
			c-0.122-0.023-0.183-0.085-0.183-0.185v-5.86c0-0.134-0.021-0.24-0.061-0.32c-0.01-0.026-0.021-0.052-0.03-0.075
			c-0.01-0.021-0.021-0.045-0.031-0.064c0-0.014,0.028-0.029,0.084-0.049c0.056-0.021,0.119-0.041,0.19-0.062
			c0.071-0.021,0.139-0.036,0.206-0.05c0.066-0.014,0.104-0.02,0.114-0.02c0.172,0,0.307,0.035,0.403,0.108s0.145,0.217,0.145,0.431
			v1.391c0.061-0.094,0.119-0.217,0.174-0.37c0.055-0.153,0.136-0.306,0.243-0.455c0.106-0.149,0.245-0.28,0.417-0.39
			c0.172-0.11,0.394-0.166,0.667-0.166c0.323,0,0.588,0.071,0.795,0.216c0.207,0.144,0.374,0.315,0.5,0.52s0.214,0.421,0.265,0.65
			c0.05,0.229,0.076,0.435,0.076,0.614v0.09H19.388z"/>
		
			<linearGradient id="SVGID_7_" gradientUnits="userSpaceOnUse" x1="21.5215" y1="12.7583" x2="21.5215" y2="1.7691" gradientTransform="matrix(1 0 0 -1 0 65)">
			<stop  offset="0" style="stop-color:#E09B3D"/>
			<stop  offset="0.3" style="stop-color:#C74C4D"/>
			<stop  offset="0.6" style="stop-color:#C21975"/>
			<stop  offset="1" style="stop-color:#7024C4"/>
		</linearGradient>
		<path fill="url(#SVGID_7_)" d="M23.059,58.721c0,0.08-0.043,0.149-0.129,0.21c-0.086,0.061-0.193,0.113-0.32,0.16
			s-0.259,0.08-0.396,0.104c-0.137,0.023-0.251,0.035-0.343,0.035c-0.173,0-0.363-0.012-0.571-0.035s-0.383-0.07-0.525-0.145
			c-0.163-0.088-0.297-0.225-0.404-0.415s-0.188-0.417-0.244-0.681s-0.094-0.557-0.114-0.879c-0.02-0.324-0.03-0.662-0.03-1.017
			c0-0.146,0.007-0.31,0.023-0.49c0.015-0.18,0.033-0.368,0.053-0.563c0.02-0.196,0.045-0.395,0.076-0.59
			c0.03-0.197,0.061-0.387,0.091-0.565c0.03-0.126,0.066-0.263,0.106-0.41c0.041-0.146,0.084-0.286,0.129-0.42
			c0.046-0.133,0.099-0.253,0.16-0.358c0.061-0.107,0.126-0.185,0.198-0.23c0.081-0.053,0.19-0.088,0.328-0.104
			c0.137-0.018,0.261-0.025,0.373-0.025c0.233,0,0.421,0.04,0.563,0.119c0.142,0.08,0.251,0.188,0.327,0.326
			c0.076,0.137,0.127,0.293,0.152,0.47S22.6,53.581,22.6,53.78c0,0.309-0.015,0.639-0.045,0.995
			c-0.031,0.356-0.094,0.716-0.19,1.075c-0.097,0.359-0.234,0.71-0.411,1.05c-0.178,0.341-0.414,0.65-0.708,0.931
			c0.01,0.094,0.028,0.201,0.054,0.324c0.025,0.124,0.063,0.239,0.114,0.346c0.05,0.106,0.116,0.196,0.198,0.271
			c0.081,0.073,0.188,0.11,0.32,0.11c0.122,0,0.218-0.02,0.29-0.055c0.071-0.037,0.134-0.08,0.19-0.125
			c0.056-0.048,0.112-0.09,0.167-0.125c0.056-0.037,0.13-0.057,0.221-0.057c0.101,0,0.17,0.021,0.206,0.061
			C23.041,58.622,23.059,58.667,23.059,58.721z M21.917,54.021c0-0.066-0.003-0.146-0.008-0.24
			c-0.005-0.093-0.021-0.185-0.045-0.273c-0.026-0.09-0.059-0.168-0.099-0.23c-0.041-0.063-0.097-0.095-0.167-0.095
			c-0.102,0-0.183,0.094-0.244,0.28c-0.061,0.186-0.109,0.432-0.145,0.733c-0.036,0.304-0.061,0.647-0.076,1.03
			c-0.016,0.384-0.023,0.771-0.023,1.165c0,0.112,0,0.231,0,0.354s0.01,0.231,0.03,0.324c0.335-0.525,0.548-1.035,0.64-1.529
			C21.872,55.048,21.917,54.54,21.917,54.021z"/>
		
			<linearGradient id="SVGID_8_" gradientUnits="userSpaceOnUse" x1="25.6855" y1="12.7573" x2="25.6855" y2="1.7681" gradientTransform="matrix(1 0 0 -1 0 65)">
			<stop  offset="0" style="stop-color:#E09B3D"/>
			<stop  offset="0.3" style="stop-color:#C74C4D"/>
			<stop  offset="0.6" style="stop-color:#C21975"/>
			<stop  offset="1" style="stop-color:#7024C4"/>
		</linearGradient>
		<path fill="url(#SVGID_8_)" d="M28.084,56.157c0.041-0.046,0.111-0.068,0.213-0.068c0.051,0,0.086,0.02,0.105,0.06
			s0.031,0.073,0.031,0.101c-0.01,0.207-0.079,0.392-0.206,0.554c-0.127,0.163-0.263,0.305-0.403,0.425
			c-0.082,0.073-0.171,0.141-0.268,0.199c-0.096,0.06-0.195,0.115-0.297,0.17c-0.01,0.113-0.018,0.191-0.023,0.234
			c-0.005,0.043-0.013,0.078-0.021,0.104c-0.021,0.1-0.071,0.227-0.152,0.379c-0.082,0.153-0.195,0.303-0.343,0.449
			s-0.325,0.271-0.533,0.374c-0.208,0.104-0.449,0.155-0.723,0.155c-0.091,0-0.196-0.008-0.312-0.021
			c-0.117-0.013-0.236-0.031-0.358-0.055s-0.239-0.051-0.351-0.08c-0.112-0.029-0.208-0.063-0.289-0.096
			c-0.254-0.093-0.462-0.201-0.625-0.328c-0.163-0.127-0.287-0.262-0.373-0.404c-0.086-0.143-0.145-0.289-0.175-0.438
			c-0.03-0.15-0.045-0.295-0.045-0.436c0-0.239,0.038-0.482,0.114-0.729c0.076-0.248,0.17-0.481,0.282-0.709
			c0.111-0.227,0.238-0.429,0.38-0.607c0.142-0.18,0.279-0.319,0.411-0.419c0.132-0.095,0.279-0.158,0.442-0.195
			c0.162-0.036,0.31-0.055,0.441-0.055c0.163,0,0.325,0.026,0.487,0.08c0.163,0.053,0.32,0.12,0.472,0.198
			c0.152,0.08,0.302,0.172,0.45,0.274c0.146,0.103,0.287,0.205,0.418,0.306c0.103,0.072,0.178,0.19,0.229,0.354
			c0.051,0.164,0.091,0.328,0.122,0.494c0.021,0.094,0.036,0.193,0.046,0.3s0.015,0.216,0.015,0.329
			c0.152-0.08,0.274-0.165,0.366-0.255c0.091-0.089,0.165-0.175,0.222-0.255c0.056-0.079,0.101-0.153,0.137-0.225
			C28.004,56.253,28.043,56.197,28.084,56.157z M26.288,57.831c-0.123,0.054-0.29,0.094-0.502,0.121
			c-0.213,0.025-0.391,0.039-0.533,0.039c-0.274,0-0.485-0.014-0.632-0.039c-0.147-0.027-0.307-0.08-0.479-0.16l-0.016,0.209
			c0,0.074,0.016,0.149,0.046,0.229c0.03,0.08,0.079,0.153,0.145,0.222c0.066,0.065,0.16,0.12,0.282,0.164
			c0.122,0.043,0.274,0.064,0.457,0.064c0.223,0,0.414-0.028,0.571-0.085c0.158-0.058,0.284-0.128,0.381-0.216
			c0.097-0.086,0.167-0.18,0.213-0.279C26.264,58.001,26.288,57.911,26.288,57.831z M26.355,56.831
			c-0.005-0.094-0.015-0.203-0.03-0.33c-0.015-0.127-0.041-0.258-0.076-0.396c-0.035-0.137-0.085-0.262-0.151-0.375
			c-0.066-0.112-0.15-0.208-0.251-0.285c-0.102-0.075-0.229-0.114-0.381-0.114c-0.152,0-0.3,0.041-0.441,0.121
			c-0.143,0.078-0.27,0.183-0.381,0.31c-0.112,0.127-0.201,0.271-0.267,0.43c-0.066,0.16-0.099,0.317-0.099,0.472
			c0,0.267,0.081,0.461,0.244,0.584s0.442,0.186,0.838,0.186c0.294,0,0.535-0.03,0.723-0.09c0.188-0.061,0.282-0.106,0.282-0.141
			v-0.189C26.363,56.984,26.36,56.923,26.355,56.831z"/>
		
			<linearGradient id="SVGID_9_" gradientUnits="userSpaceOnUse" x1="30.4214" y1="12.7573" x2="30.4214" y2="1.7681" gradientTransform="matrix(1 0 0 -1 0 65)">
			<stop  offset="0" style="stop-color:#E09B3D"/>
			<stop  offset="0.3" style="stop-color:#C74C4D"/>
			<stop  offset="0.6" style="stop-color:#C21975"/>
			<stop  offset="1" style="stop-color:#7024C4"/>
		</linearGradient>
		<path fill="url(#SVGID_9_)" d="M32.789,56.841c0,0.1-0.025,0.177-0.084,0.229c-0.057,0.055-0.129,0.094-0.22,0.12
			c-0.092,0.027-0.195,0.045-0.313,0.056c-0.117,0.01-0.23,0.02-0.342,0.024v0.05c0,0.141-0.031,0.317-0.093,0.53
			c-0.062,0.214-0.149,0.42-0.266,0.62c-0.117,0.199-0.267,0.373-0.443,0.521c-0.178,0.146-0.387,0.227-0.631,0.238
			c-0.051,0.007-0.103,0.012-0.151,0.012c-0.051,0-0.103,0-0.152,0c-0.487,0-0.868-0.076-1.143-0.227
			c-0.273-0.148-0.478-0.34-0.609-0.57c-0.131-0.229-0.213-0.48-0.243-0.755c-0.031-0.274-0.046-0.532-0.046-0.778
			c0-0.567,0.086-1.145,0.259-1.73c0.11-0.008,0.213-0.02,0.304-0.035c0.092-0.016,0.193-0.023,0.305-0.023c0.021,0,0.066,0,0.138,0
			s0.146,0.002,0.221,0.01c0.076,0.007,0.146,0.017,0.206,0.029c0.061,0.014,0.092,0.029,0.092,0.051
			c0,0.033-0.006,0.078-0.016,0.135s-0.023,0.117-0.038,0.18s-0.03,0.125-0.046,0.186s-0.027,0.109-0.037,0.149
			c-0.052,0.233-0.092,0.472-0.123,0.71c-0.029,0.24-0.046,0.48-0.046,0.721c0,0.094,0.01,0.223,0.03,0.386s0.063,0.325,0.123,0.485
			c0.061,0.158,0.148,0.297,0.266,0.414c0.117,0.116,0.271,0.176,0.465,0.176c0.184,0,0.33-0.063,0.441-0.187
			c0.111-0.123,0.199-0.267,0.26-0.43s0.102-0.326,0.121-0.49c0.02-0.163,0.031-0.288,0.031-0.375c0-0.033-0.033-0.069-0.1-0.108
			c-0.068-0.041-0.144-0.095-0.229-0.16c-0.087-0.066-0.168-0.146-0.244-0.24s-0.123-0.207-0.146-0.34v-0.211
			c0-0.053,0.002-0.116,0.008-0.189c0.007-0.072,0.017-0.148,0.031-0.225c0.017-0.077,0.035-0.15,0.062-0.221
			c0.024-0.07,0.06-0.125,0.101-0.164c0-0.008,0.018-0.018,0.053-0.031c0.035-0.012,0.074-0.025,0.112-0.039
			c0.041-0.014,0.082-0.025,0.123-0.035c0.039-0.01,0.066-0.016,0.076-0.016c0.028,0,0.071,0.004,0.129,0.011
			s0.117,0.014,0.185,0.02c0.063,0.007,0.127,0.017,0.182,0.025c0.057,0.01,0.094,0.019,0.115,0.024
			c0.051,0.021,0.08,0.053,0.09,0.096c0.012,0.043,0.025,0.078,0.047,0.104c0.051,0.107,0.088,0.205,0.113,0.297
			c0.025,0.09,0.041,0.18,0.047,0.27c0.004,0.09,0.01,0.184,0.014,0.279c0.006,0.098,0.014,0.205,0.023,0.326
			c0,0.02,0.049,0.041,0.145,0.063c0.098,0.022,0.16,0.035,0.191,0.035c0.141,0,0.258-0.026,0.35-0.08
			c0.091-0.054,0.152-0.08,0.183-0.08c0.053,0,0.084,0.021,0.1,0.065C32.781,56.79,32.789,56.82,32.789,56.841z"/>
		
			<linearGradient id="SVGID_10_" gradientUnits="userSpaceOnUse" x1="35.0342" y1="12.7573" x2="35.0342" y2="1.7681" gradientTransform="matrix(1 0 0 -1 0 65)">
			<stop  offset="0" style="stop-color:#E09B3D"/>
			<stop  offset="0.3" style="stop-color:#C74C4D"/>
			<stop  offset="0.6" style="stop-color:#C21975"/>
			<stop  offset="1" style="stop-color:#7024C4"/>
		</linearGradient>
		<path fill="url(#SVGID_10_)" d="M37.313,57.471c0,0.167-0.047,0.354-0.139,0.56c-0.092,0.207-0.232,0.398-0.426,0.575
			c-0.191,0.177-0.439,0.325-0.738,0.445c-0.301,0.12-0.656,0.18-1.072,0.18c-0.396,0-0.732-0.047-1.006-0.14
			c-0.273-0.094-0.5-0.221-0.68-0.381c-0.178-0.159-0.305-0.349-0.381-0.564c-0.074-0.217-0.113-0.443-0.113-0.686
			c0-0.232,0.041-0.489,0.121-0.771c0.082-0.278,0.209-0.541,0.383-0.785c0.172-0.243,0.391-0.446,0.654-0.608
			c0.264-0.163,0.582-0.245,0.959-0.245c0.184,0,0.355,0.024,0.518,0.075c0.164,0.05,0.305,0.115,0.428,0.193
			c0.121,0.08,0.217,0.174,0.289,0.28c0.07,0.106,0.111,0.217,0.121,0.33l0.016,0.14c0,0.16-0.041,0.335-0.121,0.525
			c-0.082,0.189-0.199,0.367-0.352,0.529c-0.152,0.164-0.34,0.301-0.563,0.41c-0.225,0.109-0.479,0.166-0.762,0.166
			c-0.051,0-0.113-0.005-0.189-0.012c-0.076-0.006-0.15-0.018-0.223-0.029v0.291c0,0.045,0.023,0.112,0.07,0.198
			c0.045,0.087,0.113,0.172,0.205,0.255c0.092,0.084,0.211,0.157,0.357,0.221s0.326,0.096,0.539,0.096
			c0.295,0,0.535-0.038,0.725-0.115c0.188-0.076,0.344-0.175,0.465-0.295s0.215-0.255,0.281-0.405
			c0.066-0.149,0.119-0.295,0.16-0.435c0.029-0.094,0.061-0.156,0.092-0.19c0.029-0.032,0.08-0.05,0.15-0.05
			c0.152,0,0.23,0.057,0.23,0.17V57.471z M35.516,55.921c0-0.055-0.023-0.11-0.068-0.17c-0.047-0.062-0.131-0.09-0.252-0.09
			c-0.184,0-0.34,0.063-0.473,0.188c-0.133,0.127-0.24,0.271-0.326,0.437c-0.088,0.162-0.15,0.318-0.191,0.469
			c-0.041,0.149-0.061,0.248-0.061,0.296v0.03c0,0.06,0.008,0.107,0.021,0.145c0.018,0.037,0.068,0.055,0.16,0.055h0.076
			c0.203,0,0.375-0.05,0.518-0.148c0.143-0.102,0.256-0.221,0.344-0.36c0.086-0.14,0.148-0.283,0.189-0.43s0.063-0.267,0.063-0.36
			V55.921z"/>
		
			<linearGradient id="SVGID_11_" gradientUnits="userSpaceOnUse" x1="39.4795" y1="12.7573" x2="39.4795" y2="1.7681" gradientTransform="matrix(1 0 0 -1 0 65)">
			<stop  offset="0" style="stop-color:#E09B3D"/>
			<stop  offset="0.3" style="stop-color:#C74C4D"/>
			<stop  offset="0.6" style="stop-color:#C21975"/>
			<stop  offset="1" style="stop-color:#7024C4"/>
		</linearGradient>
		<path fill="url(#SVGID_11_)" d="M42.002,59.271c0,0.066-0.047,0.113-0.139,0.141c-0.09,0.026-0.178,0.041-0.258,0.041
			l-0.307-0.021c-0.051,0-0.074,0.021-0.074,0.061l-0.016,0.119c0.01,0.182,0.016,0.407,0.016,0.682c0,0.273,0,0.535,0,0.789
			c0,0.268-0.014,0.528-0.039,0.785c-0.025,0.256-0.082,0.486-0.174,0.689s-0.223,0.365-0.389,0.49
			c-0.168,0.123-0.398,0.185-0.693,0.185c-0.254,0-0.521-0.008-0.801-0.024c-0.277-0.016-0.531-0.059-0.76-0.125
			s-0.418-0.164-0.563-0.295c-0.148-0.131-0.223-0.306-0.223-0.524c0-0.22,0.039-0.445,0.115-0.675
			c0.076-0.23,0.188-0.454,0.33-0.67c0.143-0.217,0.313-0.424,0.512-0.621c0.199-0.196,0.418-0.371,0.652-0.524
			c0.123-0.08,0.258-0.161,0.406-0.245c0.146-0.083,0.277-0.15,0.391-0.205v-0.01c0.021-0.141,0.035-0.279,0.045-0.42
			s0.016-0.283,0.016-0.43c-0.051,0.06-0.111,0.142-0.184,0.244c-0.072,0.104-0.156,0.201-0.252,0.295
			c-0.098,0.094-0.207,0.176-0.33,0.246c-0.121,0.068-0.26,0.104-0.412,0.104c-0.082,0-0.152-0.01-0.215-0.03
			c-0.061-0.02-0.146-0.028-0.26-0.028c-0.285-0.015-0.523-0.063-0.713-0.15c-0.188-0.087-0.336-0.206-0.443-0.359
			c-0.105-0.152-0.18-0.336-0.221-0.546s-0.063-0.444-0.063-0.704c0-0.313,0.027-0.637,0.084-0.971
			c0.057-0.333,0.154-0.639,0.297-0.915c0.145-0.276,0.334-0.503,0.574-0.68s0.543-0.265,0.91-0.265c0.039,0,0.094,0.01,0.16,0.028
			c0.064,0.021,0.137,0.042,0.213,0.065c0.076,0.022,0.154,0.047,0.229,0.07c0.076,0.022,0.137,0.037,0.178,0.045
			c0.203,0.025,0.393,0.06,0.564,0.1c0.174,0.04,0.32,0.092,0.443,0.154c0.121,0.063,0.219,0.146,0.291,0.25
			c0.07,0.104,0.105,0.231,0.105,0.386c0,0.106-0.014,0.202-0.037,0.29c-0.025,0.087-0.039,0.195-0.039,0.33
			c0,0.054,0.029,0.09,0.088,0.108c0.057,0.021,0.123,0.037,0.197,0.052c0.074,0.013,0.143,0.027,0.201,0.045
			c0.063,0.017,0.094,0.052,0.094,0.104c0,0.014-0.023,0.045-0.068,0.096c-0.047,0.051-0.074,0.082-0.084,0.096
			c-0.031,0.054-0.057,0.139-0.076,0.255s-0.037,0.243-0.047,0.38s-0.018,0.275-0.021,0.42c-0.006,0.145-0.008,0.271-0.008,0.385
			c0,0.087,0,0.202,0,0.346c0,0.145,0.004,0.263,0.016,0.354h0.061c0.021,0,0.041-0.002,0.063-0.005
			c0.02-0.003,0.035-0.005,0.045-0.005c0.092,0,0.217,0.019,0.373,0.055C41.922,59.143,42.002,59.197,42.002,59.271z M40.068,56.181
			c0-0.073-0.01-0.156-0.031-0.25c-0.02-0.094-0.057-0.182-0.105-0.266c-0.053-0.084-0.125-0.152-0.225-0.209
			c-0.096-0.058-0.217-0.086-0.359-0.086c-0.193,0-0.375,0.051-0.543,0.149c-0.17,0.101-0.318,0.242-0.445,0.425
			c-0.129,0.184-0.23,0.407-0.309,0.672c-0.076,0.262-0.113,0.562-0.113,0.895c0,0.14,0.008,0.285,0.021,0.435
			c0.016,0.15,0.041,0.285,0.076,0.405s0.092,0.22,0.168,0.3s0.174,0.12,0.297,0.12c0.213,0,0.4-0.061,0.563-0.18
			c0.162-0.12,0.297-0.27,0.402-0.445c0.107-0.177,0.189-0.359,0.244-0.55c0.057-0.191,0.09-0.354,0.1-0.495
			c0.012-0.193,0.027-0.325,0.049-0.395c0.021-0.07,0.043-0.115,0.064-0.137c0.064-0.053,0.105-0.115,0.121-0.189
			C40.061,56.308,40.068,56.241,40.068,56.181z M40.006,59.65c-0.234,0.106-0.459,0.257-0.668,0.45
			c-0.211,0.193-0.393,0.402-0.545,0.63c-0.154,0.228-0.273,0.457-0.361,0.69c-0.086,0.232-0.131,0.442-0.131,0.63
			c0,0.065,0.012,0.14,0.031,0.22s0.055,0.155,0.1,0.227c0.047,0.068,0.111,0.127,0.199,0.174c0.088,0.048,0.191,0.07,0.314,0.07
			c0.215,0,0.393-0.059,0.531-0.176c0.139-0.115,0.246-0.255,0.32-0.415c0.078-0.159,0.129-0.323,0.154-0.489
			s0.039-0.301,0.039-0.399c0-0.021,0-0.05,0-0.091c0-0.039,0.002-0.116,0.008-0.229c0.004-0.112,0.008-0.271,0.008-0.475
			S40.006,59.991,40.006,59.65z"/>
		
			<linearGradient id="SVGID_12_" gradientUnits="userSpaceOnUse" x1="44.3086" y1="12.7573" x2="44.3086" y2="1.7681" gradientTransform="matrix(1 0 0 -1 0 65)">
			<stop  offset="0" style="stop-color:#E09B3D"/>
			<stop  offset="0.3" style="stop-color:#C74C4D"/>
			<stop  offset="0.6" style="stop-color:#C21975"/>
			<stop  offset="1" style="stop-color:#7024C4"/>
		</linearGradient>
		<path fill="url(#SVGID_12_)" d="M46.555,57.601c0,0.047-0.021,0.158-0.068,0.335c-0.045,0.177-0.127,0.362-0.242,0.562
			c-0.117,0.195-0.273,0.371-0.473,0.523s-0.449,0.23-0.754,0.23c-0.326,0-0.584-0.075-0.777-0.227
			c-0.193-0.148-0.34-0.33-0.441-0.54c-0.1-0.21-0.168-0.43-0.197-0.659s-0.045-0.422-0.045-0.574c0-0.174,0.016-0.35,0.045-0.525
			s0.051-0.352,0.061-0.523c0-0.055-0.039-0.088-0.121-0.102s-0.158-0.02-0.229-0.02c-0.121,0-0.197,0.01-0.229,0.028
			c-0.029,0.021-0.051,0.044-0.063,0.07l-0.061,0.319c-0.041,0.213-0.084,0.418-0.129,0.615c-0.047,0.196-0.098,0.369-0.152,0.521
			c-0.057,0.149-0.121,0.27-0.197,0.36c-0.076,0.09-0.166,0.135-0.268,0.135h-0.016c-0.041,0-0.078-0.008-0.115-0.021
			c-0.035-0.013-0.053-0.046-0.053-0.1c0-0.026,0.01-0.066,0.031-0.12c0.08-0.233,0.131-0.427,0.15-0.58
			c0.021-0.153,0.035-0.29,0.047-0.41v-0.069c0-0.033,0.002-0.072,0.008-0.119s0.008-0.104,0.008-0.17v-0.262
			c0-0.072,0-0.148,0-0.229s-0.01-0.168-0.031-0.26l-0.045-0.59c0-0.041,0.025-0.078,0.076-0.111
			c0.051-0.032,0.117-0.063,0.197-0.09c0.082-0.026,0.168-0.047,0.26-0.061c0.092-0.013,0.172-0.02,0.244-0.02
			c0.172,0,0.258,0.072,0.258,0.22v0.05l-0.016,0.221v0.061c0,0.047,0.016,0.074,0.047,0.085c0.029,0.01,0.092,0.021,0.182,0.034
			h0.047c0.08,0.008,0.213,0.015,0.396,0.021c0.182,0.007,0.365,0.021,0.549,0.04c0.182,0.021,0.342,0.053,0.479,0.096
			s0.205,0.104,0.205,0.186c0,0.025-0.01,0.064-0.031,0.115c-0.02,0.05-0.045,0.1-0.074,0.148c-0.031,0.051-0.057,0.096-0.076,0.137
			c-0.021,0.039-0.031,0.065-0.031,0.08c-0.182,0.459-0.273,0.938-0.273,1.438c0,0.04,0.006,0.112,0.016,0.22
			s0.031,0.217,0.061,0.33c0.031,0.114,0.076,0.214,0.139,0.301c0.061,0.086,0.137,0.131,0.229,0.131
			c0.152,0,0.289-0.063,0.412-0.187c0.121-0.123,0.229-0.267,0.318-0.431c0.092-0.162,0.166-0.327,0.221-0.494
			c0.057-0.167,0.094-0.29,0.115-0.37c0.02-0.073,0.053-0.118,0.1-0.136c0.045-0.016,0.088-0.024,0.129-0.024
			c0.143,0,0.213,0.062,0.213,0.181c0,0.014-0.002,0.049-0.008,0.104C46.572,57.532,46.566,57.575,46.555,57.601z"/>
		
			<linearGradient id="SVGID_13_" gradientUnits="userSpaceOnUse" x1="49.1338" y1="12.7573" x2="49.1338" y2="1.7681" gradientTransform="matrix(1 0 0 -1 0 65)">
			<stop  offset="0" style="stop-color:#E09B3D"/>
			<stop  offset="0.3" style="stop-color:#C74C4D"/>
			<stop  offset="0.6" style="stop-color:#C21975"/>
			<stop  offset="1" style="stop-color:#7024C4"/>
		</linearGradient>
		<path fill="url(#SVGID_13_)" d="M52.145,57.921c-0.021,0.094-0.072,0.203-0.152,0.33c-0.082,0.127-0.186,0.248-0.313,0.365
			c-0.129,0.115-0.273,0.215-0.441,0.295s-0.354,0.118-0.557,0.118c-0.305,0-0.57-0.075-0.801-0.229
			c-0.229-0.153-0.367-0.37-0.418-0.65c-0.061,0.107-0.133,0.229-0.213,0.37c-0.082,0.141-0.184,0.271-0.305,0.391
			c-0.123,0.119-0.262,0.222-0.42,0.306c-0.156,0.083-0.342,0.125-0.555,0.125c-0.063,0-0.107-0.005-0.139-0.011
			c-0.029-0.006-0.063-0.016-0.098-0.024c-0.037-0.011-0.076-0.019-0.123-0.024c-0.045-0.007-0.109-0.011-0.189-0.011
			c-0.244,0-0.449-0.052-0.617-0.153c-0.166-0.104-0.303-0.235-0.402-0.396c-0.102-0.161-0.176-0.335-0.221-0.525
			c-0.047-0.188-0.068-0.367-0.068-0.533c0-0.4,0.031-0.78,0.098-1.142c0.066-0.358,0.176-0.678,0.328-0.955
			c0.152-0.276,0.352-0.496,0.594-0.659c0.244-0.164,0.537-0.244,0.885-0.244c0.203,0,0.355,0.012,0.465,0.033
			c0.105,0.023,0.205,0.051,0.297,0.08c0.09,0.03,0.189,0.063,0.297,0.096s0.256,0.061,0.449,0.08
			c0.213,0.08,0.361,0.176,0.449,0.284c0.086,0.11,0.141,0.229,0.166,0.355s0.033,0.259,0.023,0.395
			c-0.012,0.138,0,0.272,0.029,0.405c0,0.007,0.021,0.018,0.068,0.029c0.047,0.014,0.1,0.029,0.16,0.046s0.113,0.04,0.16,0.069
			c0.045,0.029,0.068,0.068,0.068,0.114v0.04c-0.104,0.174-0.164,0.327-0.184,0.46c-0.021,0.134-0.031,0.294-0.031,0.479
			c0,0.095,0.008,0.195,0.023,0.306s0.039,0.214,0.076,0.312c0.035,0.097,0.088,0.176,0.16,0.238
			c0.07,0.063,0.162,0.096,0.271,0.096c0.123,0,0.232-0.039,0.328-0.119c0.098-0.08,0.178-0.172,0.244-0.275
			s0.121-0.208,0.168-0.314c0.045-0.105,0.072-0.187,0.082-0.24c0.021-0.079,0.072-0.119,0.152-0.119c0.051,0,0.1,0.02,0.145,0.055
			c0.047,0.037,0.07,0.102,0.07,0.195c0,0.025,0,0.052,0,0.074C52.156,57.86,52.154,57.888,52.145,57.921z M49.326,56.301
			c0-0.073-0.01-0.16-0.029-0.261c-0.021-0.101-0.057-0.192-0.105-0.279c-0.051-0.088-0.127-0.16-0.23-0.221
			c-0.102-0.061-0.238-0.09-0.41-0.09c-0.283,0-0.516,0.086-0.693,0.256c-0.176,0.17-0.316,0.369-0.418,0.6
			c-0.104,0.23-0.168,0.467-0.197,0.71c-0.031,0.243-0.047,0.437-0.047,0.575c0,0.105,0.008,0.234,0.021,0.385
			c0.018,0.15,0.045,0.292,0.084,0.425c0.041,0.134,0.1,0.247,0.176,0.341s0.176,0.141,0.297,0.141c0.295,0,0.521-0.075,0.678-0.227
			c0.158-0.148,0.277-0.336,0.359-0.56c0.08-0.224,0.139-0.464,0.174-0.72c0.037-0.258,0.068-0.492,0.1-0.705
			c0.021-0.113,0.066-0.187,0.139-0.215c0.07-0.03,0.105-0.053,0.105-0.065v-0.09H49.326z"/>
		
			<linearGradient id="SVGID_14_" gradientUnits="userSpaceOnUse" x1="55.9023" y1="12.7573" x2="55.9023" y2="1.7681" gradientTransform="matrix(1 0 0 -1 0 65)">
			<stop  offset="0" style="stop-color:#E09B3D"/>
			<stop  offset="0.3" style="stop-color:#C74C4D"/>
			<stop  offset="0.6" style="stop-color:#C21975"/>
			<stop  offset="1" style="stop-color:#7024C4"/>
		</linearGradient>
		<path fill="url(#SVGID_14_)" d="M56.805,56.551c-0.145,0.18-0.275,0.37-0.396,0.569c-0.123,0.199-0.215,0.356-0.275,0.471
			c-0.01,0.033-0.037,0.104-0.084,0.21c-0.045,0.106-0.096,0.225-0.15,0.354c-0.057,0.132-0.105,0.259-0.146,0.386
			s-0.061,0.229-0.061,0.311c0,0.033-0.045,0.063-0.137,0.09s-0.209,0.04-0.352,0.04c-0.223,0-0.4-0.021-0.533-0.06
			c-0.131-0.041-0.23-0.105-0.297-0.195c-0.064-0.09-0.105-0.208-0.121-0.354c-0.016-0.146-0.021-0.324-0.021-0.53v-0.75
			c0-0.054-0.004-0.106-0.008-0.16c-0.006-0.054-0.023-0.087-0.055-0.101c-0.051,0.014-0.113,0.101-0.189,0.261
			c-0.076,0.159-0.146,0.354-0.213,0.585c-0.066,0.229-0.125,0.472-0.176,0.725c-0.051,0.254-0.076,0.48-0.076,0.682
			c0,0.072-0.059,0.115-0.176,0.129c-0.115,0.014-0.246,0.021-0.389,0.021c-0.041,0-0.109-0.005-0.205-0.015
			c-0.098-0.01-0.193-0.021-0.289-0.035c-0.098-0.014-0.186-0.031-0.268-0.055c-0.08-0.024-0.131-0.053-0.152-0.086
			c-0.051-0.086-0.088-0.229-0.113-0.431c-0.025-0.198-0.039-0.51-0.039-0.93c0-0.246,0.01-0.533,0.023-0.86
			c0.016-0.326,0.033-0.71,0.053-1.148c0-0.062-0.004-0.139-0.014-0.235c-0.012-0.097-0.016-0.151-0.016-0.165
			c0-0.053,0.031-0.085,0.098-0.095c0.066-0.011,0.115-0.015,0.146-0.015c0.07,0,0.154,0.004,0.25,0.015
			c0.098,0.01,0.193,0.021,0.289,0.034c0.098,0.015,0.188,0.029,0.268,0.046c0.082,0.017,0.137,0.03,0.168,0.045v2.409
			c0.051-0.133,0.107-0.287,0.176-0.465c0.064-0.177,0.141-0.352,0.229-0.524c0.086-0.173,0.18-0.333,0.281-0.479
			s0.207-0.254,0.32-0.32c0.039-0.021,0.115-0.034,0.229-0.045c0.111-0.01,0.203-0.016,0.273-0.016c0.051,0,0.113,0.006,0.189,0.016
			c0.076,0.011,0.15,0.024,0.221,0.045c0.072,0.021,0.135,0.046,0.189,0.076c0.057,0.028,0.09,0.063,0.102,0.104v1.62v0.09
			c0,0.04,0.01,0.062,0.029,0.062s0.078-0.092,0.174-0.271s0.209-0.395,0.342-0.641c0.131-0.246,0.271-0.5,0.424-0.76
			c0.15-0.261,0.287-0.467,0.408-0.619c0.02-0.027,0.088-0.043,0.205-0.045c0.115-0.004,0.219-0.006,0.311-0.006
			c0.07,0,0.166,0.016,0.287,0.045s0.238,0.071,0.355,0.125c0.115,0.053,0.219,0.113,0.305,0.181s0.129,0.137,0.129,0.21
			c0,0.014-0.031,0.052-0.092,0.115c-0.061,0.063-0.102,0.127-0.121,0.193c-0.072,0.188-0.119,0.37-0.146,0.551
			c-0.023,0.181-0.037,0.409-0.037,0.689c0,0.12,0.008,0.24,0.023,0.359c0.014,0.121,0.039,0.229,0.074,0.326
			c0.037,0.096,0.084,0.174,0.146,0.233c0.061,0.062,0.143,0.09,0.242,0.09c0.145,0,0.27-0.03,0.381-0.095
			c0.111-0.063,0.209-0.148,0.289-0.255c0.082-0.107,0.152-0.231,0.215-0.375c0.061-0.144,0.111-0.292,0.152-0.445
			c0.049-0.16,0.143-0.239,0.273-0.239c0.08,0,0.135,0.014,0.16,0.039c0.023,0.027,0.037,0.088,0.037,0.182
			c0,0.054-0.006,0.09-0.016,0.108c-0.01,0.087-0.053,0.222-0.129,0.405s-0.184,0.367-0.32,0.55
			c-0.137,0.185-0.307,0.345-0.51,0.479c-0.203,0.137-0.438,0.205-0.701,0.205c-0.313,0-0.57-0.049-0.77-0.146
			c-0.201-0.097-0.355-0.228-0.467-0.39c-0.111-0.163-0.188-0.352-0.232-0.565c-0.047-0.213-0.068-0.437-0.068-0.67V57.37
			L56.805,56.551z"/>
	</g>
</g>
</svg>
