<?xml version="1.0" encoding="utf-8"?>
<!-- Generator: Adobe Illustrator 16.0.0, SVG Export Plug-In . SVG Version: 6.00 Build 0)  -->
<!DOCTYPE svg PUBLIC "-//W3C//DTD SVG 1.1//EN" "http://www.w3.org/Graphics/SVG/1.1/DTD/svg11.dtd">
<svg version="1.1" id="Слой_1" xmlns="http://www.w3.org/2000/svg" xmlns:xlink="http://www.w3.org/1999/xlink" x="0px" y="0px"
	 width="64px" height="64px" viewBox="0 0 64 64" enable-background="new 0 0 64 64" xml:space="preserve">
<linearGradient id="SVGID_1_" gradientUnits="userSpaceOnUse" x1="32" y1="64.167" x2="32" y2="12.9603" gradientTransform="matrix(1 0 0 -1 0 65)">
	<stop  offset="0" style="stop-color:#1A6DFF"/>
	<stop  offset="1" style="stop-color:#C822FF"/>
</linearGradient>
<path fill="url(#SVGID_1_)" d="M44,51.167H20c-7.168,0-13-5.832-13-13v-24c0-7.168,5.832-13,13-13h24c7.168,0,13,5.832,13,13v24
	C57,45.335,51.168,51.167,44,51.167z M20,3.167c-6.065,0-11,4.935-11,11v24c0,6.064,4.935,11,11,11h24c6.064,0,11-4.936,11-11v-24
	c0-6.065-4.936-11-11-11H20z"/>
<linearGradient id="SVGID_2_" gradientUnits="userSpaceOnUse" x1="32" y1="51.2842" x2="32" y2="23.7716" gradientTransform="matrix(1 0 0 -1 0 65)">
	<stop  offset="0" style="stop-color:#6DC7FF"/>
	<stop  offset="1" style="stop-color:#E6ABFF"/>
</linearGradient>
<path fill="url(#SVGID_2_)" d="M32,40.549c-7.168,0-13-5.832-13-13c0-7.168,5.832-13,13-13s13,5.832,13,13
	C45,34.717,39.168,40.549,32,40.549z M32,18.549c-4.962,0-9,4.038-9,9c0,4.962,4.038,9,9,9c4.963,0,9-4.037,9-9
	C41,22.587,36.963,18.549,32,18.549z"/>
<linearGradient id="SVGID_3_" gradientUnits="userSpaceOnUse" x1="45.999" y1="60.084" x2="45.999" y2="49.7853" gradientTransform="matrix(1 0 0 -1 0 65)">
	<stop  offset="0" style="stop-color:#6DC7FF"/>
	<stop  offset="1" style="stop-color:#E6ABFF"/>
</linearGradient>
<circle fill="url(#SVGID_3_)" cx="46" cy="10.167" r="3"/>
<g>
	<g>
		<linearGradient id="SVGID_4_" gradientUnits="userSpaceOnUse" x1="33.9082" y1="52.6387" x2="33.9082" y2="63.6279">
			<stop  offset="0" style="stop-color:#6DC7FF"/>
			<stop  offset="1" style="stop-color:#E6ABFF"/>
		</linearGradient>
		<path fill="url(#SVGID_4_)" d="M11.66,57.828c0,0.18-0.023,0.372-0.069,0.575c-0.045,0.203-0.137,0.39-0.274,0.56
			s-0.33,0.313-0.579,0.426c-0.249,0.113-0.577,0.17-0.982,0.17c-0.365,0-0.632-0.019-0.799-0.056
			c-0.167-0.036-0.307-0.078-0.419-0.125c-0.102,0.033-0.183,0.061-0.244,0.08c-0.061,0.021-0.12,0.038-0.175,0.056
			c-0.056,0.016-0.099,0.024-0.129,0.024c-0.071,0-0.135-0.017-0.19-0.05s-0.099-0.102-0.129-0.205
			c-0.03-0.104-0.053-0.246-0.068-0.43s-0.023-0.426-0.023-0.726c0-0.479,0.01-1.14,0.031-1.979c0.02-0.84,0.04-1.924,0.061-3.25
			c0-0.066-0.01-0.106-0.03-0.12c-0.021-0.014-0.03-0.026-0.03-0.04c0-0.04,0.058-0.066,0.175-0.08s0.19-0.02,0.221-0.02
			c0.031,0,0.112,0.006,0.244,0.02s0.267,0.033,0.404,0.06c0.137,0.027,0.261,0.063,0.373,0.105s0.167,0.095,0.167,0.155
			c-0.041,0.08-0.076,0.148-0.106,0.205c-0.031,0.057-0.059,0.109-0.084,0.159c-0.025,0.051-0.038,0.085-0.038,0.105
			c-0.051,0.253-0.089,0.472-0.114,0.655s-0.045,0.376-0.061,0.58c-0.016,0.203-0.031,0.438-0.046,0.705s-0.038,0.613-0.068,1.039
			c0.051-0.066,0.099-0.151,0.145-0.255c0.046-0.103,0.104-0.205,0.175-0.305c0.071-0.1,0.16-0.187,0.266-0.26
			c0.107-0.073,0.251-0.11,0.434-0.11c0.082,0,0.195,0.021,0.343,0.061c0.147,0.04,0.261,0.066,0.343,0.08
			c0.284,0.039,0.51,0.145,0.678,0.314s0.297,0.367,0.388,0.59c0.091,0.224,0.15,0.452,0.175,0.686
			C11.647,57.462,11.66,57.662,11.66,57.828z M10.548,57.588c0-0.02-0.002-0.073-0.008-0.16c-0.005-0.086-0.015-0.187-0.03-0.3
			s-0.038-0.234-0.068-0.364c-0.031-0.131-0.074-0.249-0.13-0.355c-0.056-0.106-0.124-0.195-0.206-0.265
			c-0.081-0.07-0.183-0.105-0.304-0.105c-0.163,0-0.315,0.094-0.457,0.28s-0.267,0.411-0.373,0.675s-0.19,0.535-0.251,0.815
			c-0.061,0.279-0.091,0.51-0.091,0.689c0,0.073,0.002,0.152,0.008,0.235c0.005,0.083,0.018,0.161,0.038,0.234
			c0.122,0.034,0.213,0.063,0.274,0.085c0.061,0.023,0.112,0.044,0.152,0.061s0.084,0.028,0.129,0.035
			c0.046,0.007,0.104,0.01,0.175,0.01c0.264,0,0.472-0.068,0.624-0.205c0.152-0.137,0.267-0.293,0.343-0.47s0.125-0.352,0.145-0.525
			C10.538,57.785,10.548,57.662,10.548,57.588z"/>
		<linearGradient id="SVGID_5_" gradientUnits="userSpaceOnUse" x1="33.9082" y1="52.6387" x2="33.9082" y2="63.6279">
			<stop  offset="0" style="stop-color:#6DC7FF"/>
			<stop  offset="1" style="stop-color:#E6ABFF"/>
		</linearGradient>
		<path fill="url(#SVGID_5_)" d="M14.294,54.778c0,0.047-0.036,0.085-0.107,0.115c-0.071,0.029-0.15,0.052-0.236,0.064
			c-0.086,0.014-0.17,0.023-0.251,0.03c-0.081,0.007-0.132,0.01-0.152,0.01c-0.213,0-0.424-0.04-0.632-0.12s-0.398-0.206-0.571-0.38
			c-0.021-0.02-0.051-0.047-0.092-0.08s-0.061-0.057-0.061-0.069c0-0.034,0.038-0.063,0.114-0.091
			c0.076-0.026,0.162-0.053,0.259-0.08c0.096-0.026,0.188-0.046,0.274-0.06s0.145-0.02,0.175-0.02c0.203,0,0.403,0.033,0.602,0.1
			c0.198,0.066,0.358,0.19,0.479,0.37c0.021,0.02,0.059,0.055,0.114,0.104C14.266,54.724,14.294,54.758,14.294,54.778z
			 M15.848,57.809c-0.03,0.159-0.086,0.326-0.167,0.5c-0.082,0.173-0.196,0.335-0.343,0.484c-0.147,0.15-0.333,0.273-0.556,0.37
			c-0.224,0.097-0.498,0.146-0.822,0.146c-0.254,0-0.513-0.057-0.777-0.17c-0.264-0.12-0.444-0.277-0.541-0.471
			c-0.097-0.193-0.145-0.38-0.145-0.56c0-0.054,0.005-0.134,0.016-0.24c0.01-0.106,0.015-0.236,0.015-0.39v-1.101
			c0-0.053-0.003-0.109-0.008-0.17c-0.005-0.06-0.018-0.116-0.038-0.17c-0.01-0.026-0.028-0.057-0.053-0.09s-0.038-0.057-0.038-0.07
			c0-0.026,0.025-0.048,0.076-0.064s0.106-0.028,0.167-0.035s0.147-0.01,0.259-0.01c0.031,0,0.102,0.001,0.213,0.005
			c0.112,0.003,0.229,0.015,0.35,0.035c0.122,0.02,0.231,0.052,0.328,0.095c0.096,0.043,0.145,0.104,0.145,0.185
			c0.01,0.021-0.007,0.057-0.053,0.11s-0.089,0.146-0.129,0.28c-0.01,0.053-0.021,0.102-0.03,0.145
			c-0.01,0.044-0.021,0.092-0.031,0.146c-0.01,0.053-0.021,0.118-0.03,0.194c-0.01,0.077-0.021,0.176-0.031,0.295v0.601
			c0,0.106,0.005,0.215,0.016,0.325c0.01,0.109,0.033,0.21,0.068,0.3s0.094,0.163,0.175,0.22c0.081,0.057,0.188,0.085,0.32,0.085
			c0.192,0,0.345-0.036,0.457-0.11c0.112-0.073,0.198-0.136,0.259-0.189c0.112-0.1,0.198-0.225,0.259-0.375
			c0.061-0.15,0.116-0.305,0.167-0.465l0.03-0.101c0.03-0.1,0.122-0.149,0.274-0.149c0.152,0,0.229,0.069,0.229,0.21v0.05
			L15.848,57.809z"/>
		<linearGradient id="SVGID_6_" gradientUnits="userSpaceOnUse" x1="33.9082" y1="52.6387" x2="33.9082" y2="63.6279">
			<stop  offset="0" style="stop-color:#6DC7FF"/>
			<stop  offset="1" style="stop-color:#E6ABFF"/>
		</linearGradient>
		<path fill="url(#SVGID_6_)" d="M19.7,57.488c0,0.28-0.038,0.545-0.113,0.795s-0.188,0.467-0.338,0.65
			c-0.15,0.183-0.341,0.33-0.573,0.439c-0.231,0.11-0.5,0.165-0.804,0.165c-0.274,0-0.508-0.035-0.701-0.104
			c-0.193-0.07-0.29-0.192-0.29-0.365c0-0.073,0.038-0.13,0.114-0.17s0.145-0.061,0.206-0.061c0.081,0,0.14,0.016,0.175,0.045
			c0.036,0.03,0.071,0.063,0.106,0.101c0.036,0.036,0.076,0.069,0.122,0.1c0.045,0.03,0.119,0.045,0.221,0.045
			c0.172,0,0.307-0.053,0.403-0.16c0.097-0.106,0.17-0.239,0.221-0.399c0.05-0.16,0.083-0.333,0.099-0.521
			c0.016-0.187,0.023-0.359,0.023-0.52v-0.46c0-0.094-0.005-0.205-0.015-0.335c-0.01-0.13-0.036-0.254-0.076-0.37
			s-0.104-0.217-0.19-0.3c-0.086-0.084-0.201-0.125-0.343-0.125c-0.213,0-0.398,0.102-0.556,0.305
			c-0.158,0.203-0.287,0.46-0.388,0.771c-0.102,0.31-0.175,0.653-0.221,1.029c-0.046,0.377-0.069,0.738-0.069,1.085v0.891
			c0.01,0.133,0.021,0.25,0.031,0.35c0.01,0.1,0.022,0.193,0.038,0.28c0.015,0.086,0.035,0.171,0.061,0.255
			c0.025,0.083,0.059,0.178,0.099,0.285c0.01,0.02,0.048,0.038,0.114,0.055c0.066,0.017,0.099,0.048,0.099,0.095
			c0,0.054-0.028,0.096-0.084,0.125c-0.056,0.03-0.127,0.054-0.213,0.07c-0.086,0.017-0.181,0.026-0.282,0.03
			c-0.102,0.003-0.193,0.005-0.274,0.005h-0.213c-0.122,0-0.244-0.012-0.365-0.035c-0.122-0.023-0.183-0.085-0.183-0.185v-5.86
			c0-0.134-0.021-0.24-0.061-0.32c-0.01-0.026-0.021-0.052-0.03-0.075c-0.01-0.022-0.021-0.045-0.031-0.064
			c0-0.014,0.028-0.03,0.084-0.05c0.056-0.021,0.119-0.04,0.19-0.061c0.071-0.02,0.139-0.036,0.206-0.05
			c0.066-0.014,0.104-0.02,0.114-0.02c0.172,0,0.307,0.036,0.403,0.109c0.096,0.073,0.145,0.217,0.145,0.431v1.39
			c0.061-0.094,0.119-0.217,0.174-0.37s0.136-0.305,0.243-0.455c0.106-0.15,0.245-0.28,0.417-0.39
			c0.172-0.11,0.394-0.165,0.667-0.165c0.323,0,0.588,0.071,0.795,0.215s0.374,0.316,0.5,0.52c0.126,0.204,0.214,0.42,0.265,0.65
			c0.05,0.23,0.076,0.435,0.076,0.615V57.488z"/>
		<linearGradient id="SVGID_7_" gradientUnits="userSpaceOnUse" x1="33.9082" y1="52.6387" x2="33.9082" y2="63.6279">
			<stop  offset="0" style="stop-color:#6DC7FF"/>
			<stop  offset="1" style="stop-color:#E6ABFF"/>
		</linearGradient>
		<path fill="url(#SVGID_7_)" d="M23.371,59.118c0,0.08-0.043,0.15-0.129,0.21c-0.086,0.061-0.193,0.113-0.32,0.16
			s-0.259,0.081-0.396,0.104s-0.251,0.035-0.343,0.035c-0.173,0-0.363-0.012-0.571-0.035c-0.208-0.023-0.383-0.071-0.525-0.145
			c-0.163-0.087-0.297-0.225-0.404-0.415s-0.188-0.417-0.244-0.68c-0.056-0.264-0.094-0.557-0.114-0.88s-0.03-0.662-0.03-1.016
			c0-0.146,0.007-0.31,0.023-0.49c0.015-0.18,0.033-0.368,0.053-0.564c0.02-0.196,0.045-0.394,0.076-0.59
			c0.03-0.197,0.061-0.386,0.091-0.565c0.03-0.126,0.066-0.263,0.106-0.41c0.041-0.146,0.084-0.286,0.129-0.42
			c0.046-0.133,0.099-0.253,0.16-0.359c0.061-0.107,0.126-0.184,0.198-0.23c0.081-0.053,0.19-0.088,0.328-0.104
			c0.137-0.017,0.261-0.025,0.373-0.025c0.233,0,0.421,0.04,0.563,0.12c0.142,0.08,0.251,0.188,0.327,0.325s0.127,0.293,0.152,0.47
			s0.038,0.365,0.038,0.564c0,0.308-0.015,0.639-0.045,0.995c-0.031,0.357-0.094,0.716-0.19,1.075
			c-0.097,0.36-0.234,0.71-0.411,1.05c-0.178,0.341-0.414,0.65-0.708,0.931c0.01,0.093,0.028,0.201,0.054,0.324
			c0.025,0.124,0.063,0.239,0.114,0.346c0.05,0.106,0.116,0.196,0.198,0.27c0.081,0.073,0.188,0.11,0.32,0.11
			c0.122,0,0.218-0.019,0.29-0.055c0.071-0.037,0.134-0.079,0.19-0.125c0.056-0.047,0.112-0.089,0.167-0.125
			c0.056-0.037,0.13-0.056,0.221-0.056c0.101,0,0.17,0.021,0.206,0.061C23.353,59.019,23.371,59.064,23.371,59.118z M22.229,54.418
			c0-0.066-0.003-0.146-0.008-0.24c-0.005-0.093-0.021-0.185-0.045-0.274c-0.026-0.09-0.059-0.167-0.099-0.23
			c-0.041-0.063-0.097-0.095-0.167-0.095c-0.102,0-0.183,0.094-0.244,0.28s-0.109,0.432-0.145,0.734
			c-0.036,0.304-0.061,0.647-0.076,1.03c-0.016,0.384-0.023,0.771-0.023,1.165c0,0.113,0,0.231,0,0.355
			c0,0.123,0.01,0.231,0.03,0.324c0.335-0.526,0.548-1.036,0.64-1.529S22.229,54.938,22.229,54.418z"/>
		<linearGradient id="SVGID_8_" gradientUnits="userSpaceOnUse" x1="33.9082" y1="52.6387" x2="33.9082" y2="63.6279">
			<stop  offset="0" style="stop-color:#6DC7FF"/>
			<stop  offset="1" style="stop-color:#E6ABFF"/>
		</linearGradient>
		<path fill="url(#SVGID_8_)" d="M28.396,56.555c0.041-0.046,0.112-0.069,0.213-0.069c0.051,0,0.086,0.02,0.106,0.06
			s0.031,0.073,0.031,0.1c-0.01,0.207-0.079,0.392-0.206,0.554c-0.127,0.163-0.262,0.305-0.404,0.425
			c-0.081,0.073-0.17,0.14-0.267,0.199c-0.096,0.06-0.195,0.116-0.297,0.17c-0.01,0.113-0.018,0.191-0.023,0.234
			c-0.005,0.043-0.013,0.078-0.022,0.104c-0.021,0.1-0.071,0.227-0.152,0.379c-0.082,0.153-0.196,0.303-0.343,0.449
			c-0.147,0.146-0.325,0.271-0.533,0.374c-0.208,0.104-0.449,0.155-0.723,0.155c-0.091,0-0.196-0.007-0.312-0.021
			c-0.117-0.013-0.236-0.031-0.358-0.055c-0.122-0.023-0.239-0.05-0.351-0.08c-0.112-0.029-0.208-0.062-0.289-0.095
			c-0.254-0.093-0.462-0.202-0.625-0.329c-0.163-0.126-0.287-0.261-0.373-0.404c-0.086-0.143-0.145-0.289-0.175-0.438
			c-0.03-0.15-0.045-0.295-0.045-0.435c0-0.239,0.038-0.482,0.114-0.729s0.17-0.481,0.282-0.708c0.111-0.227,0.238-0.429,0.38-0.608
			s0.279-0.319,0.411-0.419c0.132-0.094,0.279-0.158,0.442-0.195c0.162-0.036,0.31-0.055,0.441-0.055
			c0.163,0,0.325,0.026,0.487,0.08c0.163,0.053,0.32,0.12,0.472,0.199c0.152,0.08,0.302,0.171,0.449,0.274s0.287,0.205,0.419,0.305
			c0.102,0.073,0.177,0.191,0.229,0.354c0.051,0.164,0.091,0.328,0.122,0.494c0.021,0.094,0.036,0.193,0.046,0.3
			c0.01,0.106,0.015,0.216,0.015,0.329c0.152-0.08,0.274-0.165,0.366-0.255c0.091-0.089,0.165-0.174,0.221-0.254
			c0.056-0.08,0.101-0.154,0.137-0.225C28.317,56.65,28.355,56.595,28.396,56.555z M26.599,58.229
			c-0.122,0.053-0.289,0.093-0.502,0.12c-0.213,0.026-0.391,0.04-0.533,0.04c-0.274,0-0.485-0.014-0.632-0.04
			c-0.147-0.027-0.307-0.08-0.479-0.16l-0.016,0.21c0,0.073,0.016,0.149,0.046,0.229s0.079,0.153,0.145,0.221
			c0.066,0.066,0.16,0.121,0.282,0.165c0.122,0.043,0.274,0.064,0.457,0.064c0.223,0,0.414-0.028,0.571-0.085
			c0.158-0.057,0.284-0.128,0.381-0.215s0.167-0.18,0.213-0.28C26.576,58.398,26.599,58.309,26.599,58.229z M26.667,57.229
			c-0.005-0.094-0.015-0.203-0.03-0.33s-0.041-0.259-0.076-0.396s-0.086-0.262-0.152-0.375s-0.15-0.208-0.251-0.285
			c-0.102-0.076-0.229-0.114-0.381-0.114s-0.3,0.04-0.441,0.12c-0.143,0.079-0.27,0.183-0.381,0.31
			c-0.112,0.127-0.201,0.27-0.267,0.43s-0.099,0.317-0.099,0.471c0,0.267,0.081,0.461,0.244,0.585
			c0.163,0.123,0.442,0.185,0.838,0.185c0.294,0,0.535-0.03,0.723-0.09c0.188-0.061,0.282-0.106,0.282-0.14v-0.19
			C26.675,57.382,26.672,57.321,26.667,57.229z"/>
		<linearGradient id="SVGID_9_" gradientUnits="userSpaceOnUse" x1="33.9082" y1="52.6387" x2="33.9082" y2="63.6279">
			<stop  offset="0" style="stop-color:#6DC7FF"/>
			<stop  offset="1" style="stop-color:#E6ABFF"/>
		</linearGradient>
		<path fill="url(#SVGID_9_)" d="M33.102,57.238c0,0.1-0.027,0.177-0.084,0.229c-0.057,0.054-0.129,0.094-0.221,0.12
			c-0.092,0.027-0.195,0.045-0.313,0.056c-0.117,0.01-0.23,0.019-0.342,0.024v0.05c0,0.141-0.031,0.317-0.092,0.53
			c-0.061,0.214-0.15,0.42-0.266,0.62c-0.117,0.2-0.266,0.373-0.443,0.521c-0.178,0.146-0.387,0.227-0.631,0.239
			c-0.051,0.007-0.102,0.011-0.152,0.011s-0.102,0-0.152,0c-0.487,0-0.868-0.075-1.142-0.226c-0.274-0.149-0.478-0.34-0.609-0.57
			c-0.132-0.229-0.213-0.481-0.244-0.755s-0.046-0.533-0.046-0.779c0-0.567,0.086-1.144,0.259-1.73
			c0.111-0.007,0.213-0.019,0.304-0.035s0.193-0.024,0.305-0.024c0.021,0,0.066,0,0.137,0c0.071,0,0.145,0.003,0.221,0.01
			s0.145,0.017,0.206,0.03c0.061,0.013,0.092,0.029,0.092,0.05c0,0.033-0.006,0.078-0.016,0.135s-0.023,0.117-0.038,0.18
			c-0.015,0.063-0.03,0.125-0.046,0.186c-0.016,0.06-0.027,0.109-0.037,0.149c-0.052,0.233-0.092,0.471-0.123,0.71
			c-0.03,0.24-0.046,0.48-0.046,0.721c0,0.093,0.01,0.222,0.031,0.385c0.02,0.163,0.062,0.325,0.122,0.485
			c0.061,0.159,0.149,0.298,0.266,0.415c0.117,0.116,0.271,0.175,0.465,0.175c0.184,0,0.33-0.062,0.441-0.186
			c0.111-0.123,0.199-0.267,0.26-0.43s0.102-0.326,0.121-0.49c0.02-0.163,0.031-0.288,0.031-0.375c0-0.033-0.033-0.069-0.1-0.109
			s-0.143-0.094-0.229-0.16s-0.168-0.146-0.244-0.24s-0.123-0.207-0.145-0.34v-0.21c0-0.054,0.002-0.117,0.008-0.19
			s0.016-0.148,0.031-0.225c0.016-0.077,0.035-0.15,0.061-0.22c0.025-0.07,0.059-0.125,0.1-0.165c0-0.007,0.018-0.017,0.053-0.03
			s0.074-0.026,0.113-0.04c0.041-0.014,0.082-0.025,0.123-0.035c0.039-0.01,0.066-0.015,0.076-0.015c0.029,0,0.072,0.003,0.129,0.01
			s0.117,0.014,0.184,0.02c0.064,0.007,0.127,0.016,0.182,0.025c0.057,0.01,0.094,0.019,0.115,0.025
			c0.051,0.02,0.08,0.052,0.09,0.095c0.012,0.043,0.025,0.078,0.047,0.104c0.051,0.107,0.088,0.205,0.113,0.296
			c0.025,0.09,0.041,0.18,0.047,0.27c0.004,0.09,0.01,0.184,0.014,0.28c0.006,0.097,0.014,0.205,0.023,0.325
			c0,0.02,0.049,0.041,0.145,0.064c0.098,0.023,0.16,0.035,0.191,0.035c0.141,0,0.258-0.026,0.35-0.08s0.152-0.08,0.184-0.08
			c0.051,0,0.084,0.021,0.098,0.065C33.094,57.187,33.102,57.218,33.102,57.238z"/>
		<linearGradient id="SVGID_10_" gradientUnits="userSpaceOnUse" x1="33.9082" y1="52.6387" x2="33.9082" y2="63.6279">
			<stop  offset="0" style="stop-color:#6DC7FF"/>
			<stop  offset="1" style="stop-color:#E6ABFF"/>
		</linearGradient>
		<path fill="url(#SVGID_10_)" d="M37.624,57.868c0,0.167-0.046,0.354-0.137,0.56c-0.092,0.207-0.233,0.398-0.427,0.575
			c-0.192,0.177-0.439,0.325-0.738,0.445c-0.3,0.12-0.657,0.18-1.073,0.18c-0.396,0-0.731-0.047-1.006-0.14
			c-0.273-0.094-0.5-0.22-0.678-0.38s-0.305-0.349-0.381-0.565c-0.075-0.217-0.113-0.444-0.113-0.685c0-0.233,0.04-0.49,0.121-0.771
			c0.081-0.279,0.208-0.541,0.381-0.785c0.173-0.243,0.391-0.446,0.655-0.609c0.264-0.163,0.583-0.245,0.959-0.245
			c0.183,0,0.355,0.025,0.518,0.075c0.163,0.05,0.305,0.115,0.427,0.194c0.122,0.08,0.218,0.174,0.289,0.28s0.112,0.217,0.122,0.33
			l0.016,0.14c0,0.16-0.041,0.335-0.122,0.525s-0.198,0.367-0.351,0.53s-0.34,0.3-0.563,0.41c-0.224,0.109-0.478,0.165-0.762,0.165
			c-0.051,0-0.113-0.004-0.189-0.011c-0.076-0.006-0.15-0.017-0.222-0.029v0.29c0,0.046,0.023,0.113,0.069,0.199
			c0.045,0.087,0.114,0.172,0.205,0.255c0.092,0.084,0.211,0.157,0.358,0.221c0.146,0.063,0.327,0.095,0.54,0.095
			c0.295,0,0.535-0.038,0.724-0.115c0.188-0.076,0.343-0.175,0.465-0.295c0.121-0.12,0.215-0.255,0.281-0.405
			c0.066-0.149,0.119-0.295,0.16-0.435c0.03-0.093,0.061-0.156,0.091-0.19c0.031-0.033,0.081-0.05,0.152-0.05
			c0.152,0,0.229,0.057,0.229,0.17V57.868z M35.827,56.318c0-0.054-0.022-0.11-0.068-0.17c-0.046-0.061-0.13-0.09-0.251-0.09
			c-0.184,0-0.341,0.063-0.473,0.189c-0.132,0.127-0.241,0.271-0.327,0.436c-0.087,0.163-0.15,0.319-0.19,0.47
			c-0.041,0.149-0.061,0.248-0.061,0.295v0.03c0,0.06,0.007,0.108,0.022,0.145c0.016,0.037,0.068,0.055,0.16,0.055h0.076
			c0.203,0,0.375-0.05,0.518-0.149c0.142-0.101,0.256-0.22,0.343-0.36c0.086-0.14,0.149-0.283,0.19-0.43
			c0.04-0.146,0.061-0.267,0.061-0.36V56.318z"/>
		<linearGradient id="SVGID_11_" gradientUnits="userSpaceOnUse" x1="33.9082" y1="52.6387" x2="33.9082" y2="63.6279">
			<stop  offset="0" style="stop-color:#6DC7FF"/>
			<stop  offset="1" style="stop-color:#E6ABFF"/>
		</linearGradient>
		<path fill="url(#SVGID_11_)" d="M42.314,59.668c0,0.066-0.046,0.113-0.138,0.141c-0.091,0.026-0.178,0.04-0.259,0.04l-0.305-0.021
			c-0.051,0-0.076,0.021-0.076,0.061l-0.015,0.119c0.01,0.181,0.015,0.407,0.015,0.681s0,0.536,0,0.79
			c0,0.267-0.013,0.528-0.038,0.785c-0.025,0.256-0.083,0.486-0.175,0.689c-0.091,0.203-0.221,0.366-0.388,0.49
			c-0.168,0.123-0.399,0.185-0.693,0.185c-0.254,0-0.521-0.008-0.8-0.024s-0.533-0.059-0.761-0.125
			c-0.229-0.067-0.417-0.165-0.563-0.295c-0.147-0.131-0.222-0.306-0.222-0.525s0.039-0.445,0.115-0.675
			c0.077-0.23,0.187-0.454,0.33-0.67c0.143-0.217,0.313-0.424,0.513-0.62c0.199-0.197,0.417-0.372,0.651-0.525
			c0.123-0.08,0.258-0.161,0.406-0.245c0.148-0.083,0.278-0.151,0.391-0.205v-0.01c0.021-0.14,0.036-0.28,0.046-0.42
			s0.016-0.283,0.016-0.43c-0.052,0.06-0.112,0.142-0.184,0.245s-0.156,0.201-0.253,0.295c-0.097,0.093-0.207,0.175-0.329,0.245
			c-0.122,0.069-0.26,0.104-0.413,0.104c-0.082,0-0.153-0.01-0.214-0.03c-0.062-0.02-0.148-0.029-0.261-0.029
			c-0.285-0.014-0.522-0.063-0.712-0.15c-0.188-0.087-0.336-0.206-0.443-0.36c-0.107-0.152-0.181-0.335-0.222-0.545
			s-0.062-0.444-0.062-0.705c0-0.313,0.028-0.636,0.084-0.97c0.057-0.333,0.155-0.638,0.298-0.915
			c0.143-0.276,0.334-0.503,0.573-0.68c0.24-0.177,0.543-0.265,0.91-0.265c0.04,0,0.094,0.01,0.16,0.029
			c0.066,0.021,0.138,0.042,0.214,0.065s0.153,0.047,0.229,0.07s0.135,0.038,0.176,0.045c0.204,0.026,0.393,0.06,0.565,0.1
			c0.174,0.04,0.321,0.092,0.443,0.155s0.219,0.146,0.291,0.25c0.071,0.104,0.106,0.231,0.106,0.385c0,0.106-0.013,0.203-0.038,0.29
			s-0.038,0.196-0.038,0.33c0,0.054,0.029,0.09,0.087,0.109c0.058,0.021,0.124,0.037,0.198,0.051
			c0.074,0.013,0.142,0.028,0.202,0.045c0.062,0.017,0.092,0.052,0.092,0.104c0,0.014-0.023,0.045-0.068,0.096
			c-0.046,0.05-0.074,0.081-0.084,0.095c-0.03,0.054-0.056,0.139-0.076,0.255s-0.036,0.243-0.046,0.38s-0.018,0.276-0.022,0.42
			c-0.006,0.144-0.008,0.271-0.008,0.385c0,0.087,0,0.202,0,0.346s0.005,0.262,0.015,0.354h0.062c0.021,0,0.04-0.002,0.061-0.005
			s0.036-0.005,0.046-0.005c0.092,0,0.216,0.019,0.373,0.055C42.235,59.54,42.314,59.595,42.314,59.668z M40.38,56.578
			c0-0.073-0.01-0.156-0.03-0.25c-0.021-0.093-0.057-0.182-0.107-0.265c-0.051-0.084-0.125-0.153-0.223-0.21
			c-0.097-0.057-0.217-0.085-0.36-0.085c-0.194,0-0.376,0.05-0.544,0.149c-0.169,0.101-0.317,0.242-0.445,0.425
			c-0.128,0.184-0.23,0.407-0.307,0.671c-0.077,0.263-0.115,0.562-0.115,0.895c0,0.14,0.008,0.285,0.023,0.435
			c0.015,0.15,0.04,0.285,0.075,0.405c0.036,0.12,0.092,0.22,0.168,0.3s0.175,0.12,0.297,0.12c0.213,0,0.401-0.06,0.563-0.18
			s0.297-0.269,0.403-0.445c0.107-0.177,0.188-0.359,0.244-0.55s0.089-0.354,0.099-0.495c0.011-0.193,0.027-0.325,0.049-0.395
			c0.021-0.07,0.043-0.115,0.064-0.136c0.064-0.053,0.105-0.116,0.121-0.189C40.372,56.705,40.38,56.639,40.38,56.578z
			 M40.319,60.048c-0.235,0.106-0.459,0.257-0.668,0.45c-0.211,0.193-0.393,0.403-0.546,0.63c-0.154,0.227-0.274,0.457-0.361,0.69
			s-0.131,0.443-0.131,0.63c0,0.066,0.011,0.14,0.031,0.22s0.054,0.155,0.1,0.226c0.046,0.069,0.112,0.128,0.2,0.175
			c0.087,0.047,0.191,0.07,0.314,0.07c0.215,0,0.393-0.059,0.53-0.176c0.139-0.116,0.246-0.255,0.322-0.415
			c0.077-0.159,0.129-0.323,0.154-0.489c0.025-0.167,0.038-0.301,0.038-0.4c0-0.02,0-0.05,0-0.09s0.003-0.117,0.008-0.23
			s0.008-0.271,0.008-0.475S40.319,60.389,40.319,60.048z"/>
		<linearGradient id="SVGID_12_" gradientUnits="userSpaceOnUse" x1="33.9082" y1="52.6387" x2="33.9082" y2="63.6279">
			<stop  offset="0" style="stop-color:#6DC7FF"/>
			<stop  offset="1" style="stop-color:#E6ABFF"/>
		</linearGradient>
		<path fill="url(#SVGID_12_)" d="M46.867,57.998c0,0.047-0.022,0.158-0.068,0.335s-0.127,0.363-0.243,0.561
			c-0.117,0.196-0.274,0.371-0.473,0.524s-0.449,0.23-0.754,0.23c-0.325,0-0.584-0.075-0.776-0.226
			c-0.193-0.149-0.34-0.33-0.441-0.54s-0.168-0.43-0.198-0.659c-0.03-0.23-0.046-0.422-0.046-0.575c0-0.174,0.016-0.349,0.046-0.525
			s0.051-0.352,0.061-0.524c0-0.054-0.04-0.087-0.121-0.101c-0.082-0.013-0.158-0.02-0.229-0.02c-0.122,0-0.198,0.01-0.229,0.029
			c-0.03,0.021-0.051,0.044-0.062,0.07l-0.061,0.32c-0.041,0.213-0.084,0.418-0.129,0.615c-0.046,0.196-0.097,0.369-0.152,0.52
			c-0.057,0.15-0.122,0.27-0.198,0.36c-0.076,0.09-0.165,0.135-0.267,0.135h-0.016c-0.04,0-0.078-0.007-0.114-0.021
			c-0.035-0.013-0.053-0.046-0.053-0.1c0-0.026,0.01-0.066,0.03-0.12c0.081-0.233,0.132-0.427,0.152-0.58s0.035-0.29,0.046-0.41
			v-0.069c0-0.033,0.002-0.073,0.008-0.12c0.005-0.047,0.007-0.104,0.007-0.17v-0.261c0-0.073,0-0.149,0-0.229
			s-0.01-0.167-0.03-0.26l-0.046-0.59c0-0.04,0.025-0.077,0.076-0.11s0.117-0.063,0.198-0.09s0.168-0.047,0.259-0.061
			c0.092-0.013,0.173-0.02,0.244-0.02c0.172,0,0.259,0.073,0.259,0.22v0.05l-0.016,0.221v0.06c0,0.047,0.016,0.075,0.046,0.085
			s0.092,0.021,0.183,0.035h0.046c0.081,0.007,0.213,0.014,0.396,0.02c0.183,0.007,0.366,0.021,0.549,0.04
			c0.183,0.021,0.343,0.052,0.479,0.096c0.137,0.043,0.205,0.104,0.205,0.185c0,0.026-0.01,0.065-0.03,0.115s-0.046,0.1-0.076,0.149
			c-0.03,0.051-0.056,0.096-0.076,0.136s-0.03,0.066-0.03,0.08c-0.183,0.46-0.274,0.939-0.274,1.439c0,0.04,0.006,0.113,0.016,0.22
			c0.01,0.107,0.03,0.217,0.061,0.33c0.031,0.114,0.076,0.214,0.138,0.301c0.061,0.086,0.137,0.13,0.229,0.13
			c0.152,0,0.289-0.062,0.411-0.186c0.121-0.123,0.229-0.267,0.319-0.43c0.092-0.163,0.165-0.328,0.221-0.495s0.094-0.29,0.114-0.37
			c0.021-0.073,0.054-0.118,0.1-0.135c0.045-0.017,0.088-0.025,0.129-0.025c0.143,0,0.213,0.061,0.213,0.181
			c0,0.013-0.002,0.048-0.007,0.104C46.885,57.93,46.878,57.972,46.867,57.998z"/>
		<linearGradient id="SVGID_13_" gradientUnits="userSpaceOnUse" x1="33.9082" y1="52.6387" x2="33.9082" y2="63.6279">
			<stop  offset="0" style="stop-color:#6DC7FF"/>
			<stop  offset="1" style="stop-color:#E6ABFF"/>
		</linearGradient>
		<path fill="url(#SVGID_13_)" d="M52.456,58.318c-0.021,0.094-0.071,0.203-0.152,0.33s-0.186,0.248-0.313,0.365
			c-0.127,0.116-0.273,0.215-0.441,0.295c-0.167,0.08-0.353,0.119-0.556,0.119c-0.305,0-0.571-0.076-0.8-0.229
			s-0.368-0.37-0.419-0.65c-0.061,0.107-0.132,0.23-0.213,0.37c-0.081,0.141-0.183,0.271-0.305,0.391
			c-0.122,0.119-0.262,0.221-0.419,0.305c-0.157,0.083-0.342,0.125-0.556,0.125c-0.061,0-0.106-0.004-0.137-0.01
			c-0.03-0.007-0.063-0.016-0.099-0.025c-0.036-0.01-0.076-0.019-0.122-0.025c-0.046-0.006-0.109-0.01-0.19-0.01
			c-0.244,0-0.449-0.052-0.617-0.154c-0.167-0.104-0.302-0.235-0.403-0.396s-0.175-0.335-0.221-0.525
			c-0.046-0.189-0.068-0.368-0.068-0.534c0-0.4,0.032-0.78,0.099-1.141c0.066-0.359,0.175-0.678,0.327-0.955
			c0.152-0.276,0.351-0.496,0.595-0.66c0.243-0.163,0.537-0.244,0.883-0.244c0.203,0,0.357,0.012,0.465,0.034
			c0.106,0.023,0.205,0.051,0.297,0.08c0.091,0.03,0.19,0.063,0.297,0.096s0.256,0.06,0.449,0.08
			c0.213,0.079,0.362,0.175,0.449,0.284c0.086,0.11,0.142,0.229,0.167,0.355s0.033,0.259,0.023,0.395
			c-0.011,0.137,0,0.272,0.03,0.405c0,0.007,0.022,0.017,0.068,0.03s0.1,0.028,0.16,0.045s0.114,0.04,0.16,0.07
			c0.045,0.029,0.068,0.068,0.068,0.114v0.04c-0.102,0.174-0.163,0.327-0.183,0.46c-0.021,0.134-0.031,0.294-0.031,0.48
			c0,0.094,0.008,0.195,0.023,0.305c0.015,0.11,0.04,0.214,0.076,0.311c0.035,0.097,0.089,0.177,0.16,0.239
			c0.07,0.063,0.162,0.096,0.273,0.096c0.122,0,0.231-0.04,0.328-0.12c0.096-0.08,0.177-0.172,0.243-0.275s0.122-0.208,0.168-0.314
			c0.045-0.106,0.073-0.187,0.083-0.24c0.021-0.08,0.071-0.12,0.152-0.12c0.051,0,0.1,0.019,0.145,0.055
			c0.046,0.037,0.069,0.102,0.069,0.195c0,0.026,0,0.052,0,0.075S52.466,58.285,52.456,58.318z M49.639,56.698
			c0-0.073-0.01-0.16-0.03-0.26c-0.021-0.101-0.056-0.193-0.106-0.28s-0.127-0.16-0.229-0.22c-0.102-0.061-0.239-0.09-0.411-0.09
			c-0.284,0-0.516,0.085-0.693,0.255s-0.317,0.37-0.419,0.6c-0.102,0.23-0.167,0.467-0.197,0.71s-0.046,0.436-0.046,0.575
			c0,0.106,0.008,0.235,0.022,0.385c0.016,0.15,0.043,0.292,0.084,0.425c0.04,0.134,0.099,0.247,0.175,0.341
			c0.076,0.093,0.176,0.14,0.297,0.14c0.295,0,0.521-0.075,0.678-0.226c0.157-0.149,0.277-0.336,0.358-0.56s0.14-0.463,0.175-0.72
			c0.036-0.257,0.068-0.492,0.1-0.705c0.02-0.113,0.065-0.186,0.137-0.215c0.071-0.03,0.106-0.052,0.106-0.065V56.698z"/>
		<linearGradient id="SVGID_14_" gradientUnits="userSpaceOnUse" x1="33.9082" y1="52.6387" x2="33.9082" y2="63.6279">
			<stop  offset="0" style="stop-color:#6DC7FF"/>
			<stop  offset="1" style="stop-color:#E6ABFF"/>
		</linearGradient>
		<path fill="url(#SVGID_14_)" d="M57.116,56.948c-0.143,0.18-0.274,0.37-0.396,0.57c-0.122,0.199-0.214,0.356-0.274,0.47
			c-0.01,0.033-0.038,0.104-0.084,0.21s-0.097,0.225-0.152,0.354c-0.056,0.131-0.104,0.259-0.145,0.386
			c-0.041,0.126-0.061,0.229-0.061,0.31c0,0.033-0.046,0.063-0.138,0.09c-0.091,0.027-0.208,0.04-0.35,0.04
			c-0.224,0-0.401-0.02-0.533-0.06s-0.231-0.105-0.297-0.195c-0.066-0.09-0.106-0.208-0.122-0.354
			c-0.015-0.146-0.022-0.323-0.022-0.53v-0.75c0-0.054-0.003-0.106-0.008-0.16c-0.005-0.053-0.022-0.087-0.054-0.1
			c-0.051,0.013-0.114,0.1-0.19,0.26s-0.146,0.354-0.213,0.585c-0.066,0.229-0.124,0.472-0.175,0.725
			c-0.051,0.254-0.076,0.48-0.076,0.681c0,0.073-0.059,0.116-0.176,0.13c-0.116,0.013-0.246,0.02-0.388,0.02
			c-0.041,0-0.109-0.005-0.206-0.015s-0.192-0.021-0.289-0.035s-0.186-0.031-0.267-0.055s-0.132-0.052-0.152-0.085
			c-0.051-0.087-0.089-0.23-0.114-0.431c-0.025-0.199-0.038-0.51-0.038-0.93c0-0.246,0.008-0.533,0.023-0.86
			c0.015-0.326,0.032-0.71,0.053-1.149c0-0.061-0.005-0.139-0.015-0.235c-0.011-0.097-0.016-0.151-0.016-0.165
			c0-0.053,0.033-0.085,0.099-0.095c0.066-0.01,0.114-0.015,0.146-0.015c0.07,0,0.154,0.005,0.251,0.015s0.192,0.021,0.289,0.035
			s0.186,0.028,0.267,0.045s0.137,0.031,0.168,0.045v2.41c0.05-0.134,0.108-0.288,0.175-0.465c0.065-0.177,0.142-0.352,0.229-0.525
			c0.086-0.173,0.18-0.333,0.281-0.479c0.102-0.147,0.208-0.254,0.32-0.32c0.04-0.021,0.116-0.035,0.229-0.045
			c0.111-0.01,0.203-0.016,0.273-0.016c0.051,0,0.114,0.006,0.19,0.016s0.15,0.024,0.221,0.045c0.071,0.02,0.135,0.045,0.19,0.075
			c0.056,0.029,0.089,0.064,0.1,0.104v1.62v0.09c0,0.04,0.01,0.061,0.03,0.061c0.02,0,0.078-0.091,0.174-0.271
			s0.209-0.394,0.341-0.64c0.131-0.247,0.272-0.5,0.424-0.76c0.151-0.261,0.287-0.467,0.408-0.62
			c0.021-0.027,0.089-0.042,0.205-0.045c0.115-0.004,0.219-0.006,0.311-0.006c0.07,0,0.166,0.016,0.287,0.046
			c0.121,0.029,0.239,0.071,0.356,0.125c0.116,0.053,0.218,0.113,0.304,0.18s0.13,0.137,0.13,0.21c0,0.014-0.031,0.052-0.092,0.115
			s-0.102,0.128-0.122,0.194c-0.071,0.188-0.119,0.37-0.145,0.551c-0.025,0.18-0.038,0.409-0.038,0.689
			c0,0.12,0.008,0.24,0.023,0.36c0.015,0.12,0.04,0.229,0.075,0.325c0.036,0.097,0.084,0.175,0.146,0.234
			c0.061,0.061,0.142,0.09,0.243,0.09c0.143,0,0.269-0.031,0.381-0.095c0.111-0.063,0.208-0.148,0.289-0.255
			s0.152-0.231,0.214-0.375c0.061-0.144,0.111-0.292,0.152-0.445c0.05-0.16,0.142-0.239,0.273-0.239c0.081,0,0.135,0.013,0.16,0.039
			c0.025,0.027,0.038,0.087,0.038,0.181c0,0.054-0.005,0.09-0.016,0.109c-0.01,0.087-0.053,0.222-0.129,0.405
			s-0.183,0.367-0.32,0.55c-0.137,0.184-0.307,0.344-0.51,0.48s-0.437,0.205-0.7,0.205c-0.314,0-0.571-0.049-0.771-0.146
			s-0.355-0.227-0.466-0.39s-0.188-0.352-0.233-0.565c-0.046-0.213-0.067-0.437-0.067-0.67v-0.069L57.116,56.948z"/>
	</g>
</g>
</svg>
